<?xml version="1.0" encoding="utf-8"?>
<!-- Generator: Adobe Illustrator 24.0.1, SVG Export Plug-In . SVG Version: 6.00 Build 0)  -->
<svg version="1.1" id="圖層_1" xmlns="http://www.w3.org/2000/svg" xmlns:xlink="http://www.w3.org/1999/xlink" x="0px" y="0px"
	 viewBox="0 0 114.8 44" style="enable-background:new 0 0 114.8 44;" xml:space="preserve">
<style type="text/css">
	.st0{fill-rule:evenodd;clip-rule:evenodd;fill:#FFFFFF;}
</style>
<title>T2021EN_Lockup_REV</title>
<g id="LOGO_1_" transform="translate(120.000000, 28.000000)">
	<g id="Group-4_1_">
		<g id="Clip-2_1_">
		</g>
		<path id="Fill-1_1_" class="st0" d="M-66.4-10.8c-1.2,0.1-2.4,0.8-3.2,1.3v-0.7c0-0.3-0.2-0.5-0.5-0.5h-1.8
			c-0.3,0-0.5,0.2-0.5,0.5V0.9c0,0.3,0.2,0.5,0.5,0.5h1.8c0.3,0,0.5-0.2,0.5-0.5v-7.7c0.4-0.3,1.7-1.3,3.2-1.4
			c0.2,0,0.4-0.2,0.4-0.5v-1.6c0-0.1-0.1-0.2-0.1-0.3C-66.2-10.7-66.3-10.8-66.4-10.8L-66.4-10.8z M-80.8-3.8
			c-1.1,0.1-1.6,0.6-1.6,1.6c0,0.6,0.2,1.6,1.2,1.6c1.3,0,3-0.5,3-0.5v-2.8L-80.8-3.8z M-75.4-6.9v8c0,0.1-0.1,0.3-0.2,0.3
			c-0.1,0.1-0.2,0.1-0.4,0.1c-0.9-0.1-1.4-0.4-1.8-0.8c0,0-2.1,0.8-3.9,0.8c-2.2,0-3.5-1.4-3.5-3.9c0-2.4,1.2-3.5,4-3.7l3-0.2V-7
			c0-0.9-0.5-1.5-1.5-1.5c-1.3,0-3.2,0.2-4.2,0.2c-0.1,0-0.3,0-0.3-0.1c-0.1-0.1-0.2-0.2-0.2-0.3l-0.1-1.5c0-0.2,0.2-0.4,0.4-0.5
			c0.9-0.1,3.1-0.5,4.5-0.5C-76.7-11-75.4-9.7-75.4-6.9L-75.4-6.9z M-113.8-12.6h-1c-1.1,0-1.8,0.1-2.1,0.2v4.8c0.5,0,1.6,0.1,3,0.1
			c1.8,0,2.9-1,2.9-2.5C-111-11.4-111.7-12.6-113.8-12.6L-113.8-12.6z M-108,0.8c0.1,0.1,0,0.3,0,0.4c-0.1,0.1-0.2,0.2-0.4,0.2h-2.1
			c-0.2,0-0.3-0.1-0.4-0.3l-2.7-6.2c-1.4,0-2.5-0.1-3.2-0.1v6.1c0,0.3-0.2,0.5-0.5,0.5h-1.9c-0.3,0-0.5-0.2-0.5-0.5v-15.5
			c0-0.2,0.2-0.4,0.4-0.5c2.5-0.3,4.4-0.3,5.2-0.3c0.3,0,0.4,0,0.4,0c4.7,0,5.7,2.8,5.7,5.1c0,1.9-0.9,3.4-2.8,4.3L-108,0.8z
			 M-54.2-10.5c-0.1-0.1-0.2-0.2-0.4-0.2h-1.8c-0.2,0-0.4,0.1-0.4,0.3l-2.4,9.1h-0.2l-2.4-9.1c-0.1-0.2-0.2-0.3-0.4-0.3H-64
			c-0.1,0-0.3,0.1-0.4,0.2c-0.1,0.1-0.1,0.3-0.1,0.4l2.6,10.2c0.1,0.5,0.6,1.4,1.5,1.4h0.5c0,0.2-0.1,0.4-0.1,0.5v0.1
			c-0.1,0.5-0.4,1.2-1.7,1.2L-64,3.2c-0.1,0-0.3,0-0.3,0.1c-0.1,0.1-0.1,0.2-0.1,0.3l0.1,1.2c0,0.2,0.2,0.4,0.3,0.4
			c0.7,0.2,2,0.4,3,0.4c0.1,0,0.1,0,0.1,0c1.7,0,2.9-1.1,3.5-3.3c0.7-2.6,1.5-5.9,2.2-8.3c0.3-1.1,0.5-2,0.7-2.7l0.3-1.3
			C-54-10.3-54.1-10.4-54.2-10.5L-54.2-10.5z M-98.2-4.7c0-2.7-0.7-3.8-2.6-3.8s-2.6,1-2.6,3.8c0,2.5,0.4,3.9,2.6,3.9
			C-98.6-0.8-98.2-2.3-98.2-4.7L-98.2-4.7z M-95.4-4.7c0,4.4-1.7,6.4-5.4,6.4c-3.8,0-5.5-2-5.5-6.4c0-4.3,1.7-6.3,5.5-6.3
			C-97.1-11-95.4-9-95.4-4.7L-95.4-4.7z M-86.7-0.6l0.1,1.5c0,0.2-0.1,0.4-0.4,0.5c-0.6,0.1-1.5,0.3-2.1,0.3c-2.8,0-3.6-1.1-3.6-4.6
			v-5.3h-1c-0.3,0-0.5-0.2-0.5-0.5v-1.5c0-0.3,0.2-0.5,0.5-0.5h1.1v-1.9c0-0.2,0.1-0.4,0.3-0.4l1.8-0.4c0.1,0,0.3,0,0.4,0.1
			s0.2,0.2,0.2,0.4v2.3h2.8c0.3,0,0.5,0.2,0.5,0.5v1.6c0,0.3-0.2,0.5-0.5,0.5h-2.8v4.9c0,1.7,0.1,2.3,1.3,2.3c0.4,0,1.1,0,1.5,0
			C-86.9-1-86.7-0.8-86.7-0.6L-86.7-0.6z"/>
		<path id="Fill-3_1_" class="st0" d="M-35.6-19.3l0.1,0.1l0.3,0.5l0.6-0.3c0.1,0,0.1-0.1,0.1-0.2c0-0.3-0.2-0.6-0.4-0.4
			C-35.2-19.5-35.4-19.5-35.6-19.3L-35.6-19.3z M-36.2-19.2l-0.1-0.3c0.4-0.2,0.8-0.5,1.2-0.7c0.5-0.3,1.1,0.4,1.1,0.9
			c0,0.1,0,0.2-0.1,0.3l1,0.7c-0.2,0.1-0.3,0.2-0.5,0.3l-0.9-0.6l-0.5,0.3l0.5,0.8c-0.2,0.1-0.3,0.2-0.5,0.3L-36.2-19.2z M-23.3,7.5
			l0.9,2.5c0.2-0.1,0.4-0.1,0.5-0.2l-0.8-2.5C-23,7.4-23.1,7.5-23.3,7.5L-23.3,7.5z M-26.8,9.9L-27,9.4l-0.2-0.6l-0.4,1.1H-26.8z
			 M-26.5,9.4l0.6,1.4c-0.2,0-0.4,0-0.5,0l-0.2-0.5h-1.2l-0.1,0.5c-0.2,0-0.4,0-0.5,0l0.5-1.5l0.4-1.1l0,0h0.6v0.1L-26.5,9.4z
			 M-23.6-20.2L-23-20c0.2,0,0.4-0.2,0.4-0.4c0-0.1,0-0.2-0.2-0.2c-0.2-0.1-0.4-0.1-0.6-0.2l-0.1,0.4L-23.6-20.2z M-23.9-18.8
			c-0.2-0.1-0.4-0.1-0.6-0.2l0.4-1.5l0.3-1.1c0.5,0.1,0.9,0.3,1.3,0.4c0.2,0.1,0.4,0.4,0.4,0.7c0,0.4-0.2,0.8-0.6,0.9l0.2,1.2
			c-0.2-0.1-0.3-0.1-0.5-0.2l-0.1-1l-0.5-0.2L-23.9-18.8z M-32.1,8.1c0-0.1,0-0.1-0.1-0.2l-0.7-0.2l-0.2,0.4l-0.1,0.2l0,0l0.6,0.2
			c0.2,0.1,0.3-0.1,0.4-0.2C-32.1,8.2-32.1,8.2-32.1,8.1L-32.1,8.1z M-31.6,8.1L-31.6,8.1c0,0.5-0.3,0.8-0.7,0.9l0.1,1.2
			c-0.2,0-0.4-0.1-0.6-0.2V8.8l-0.5-0.2l-0.4,1c-0.2-0.1-0.3-0.1-0.5-0.2l0.5-1.3l0.1-0.2l0.4-1l1.2,0.5
			C-31.7,7.6-31.6,7.9-31.6,8.1L-31.6,8.1z M-23.9,7.7c-0.8,0.2-1.4,0.3-2.2,0.4l0.1,0.4c0.3,0,0.5-0.1,0.9-0.1l0.4,2.2l0.6-0.1
			l-0.5-2.2c0.3-0.1,0.6-0.1,0.9-0.2L-23.9,7.7z M-21-17.6l0.6-1.1l1.6-0.7c-0.2-0.1-0.3-0.2-0.5-0.3l-1.1,0.5l-0.2-1.2
			c-0.2-0.1-0.4-0.2-0.6-0.2l0.3,1.7l-0.6,1.1L-21-17.6z M-15.1-16.9c-0.2-0.3-0.7-0.3-0.8,0l-1.8,1.8c-0.3,0.3-0.2,0.7,0,0.9
			c2.8,3,3.9,6.8,3,11.5c0,0.3,0.2,0.6,0.4,0.6l2.5,0.7c0.3,0.1,0.5-0.1,0.6-0.4C-9.8-7.5-11.6-13.2-15.1-16.9L-15.1-16.9z M-12.2,0
			l-2.5-0.9c-0.1,0-0.5,0-0.7,0.4c-2,4.9-6.8,8.2-12.3,8.2S-38,4.3-40-0.6C-40.1-1-40.5-1-40.6-0.9L-43.1,0
			c-0.3,0.1-0.4,0.3-0.3,0.7c2.5,6.3,8.6,10.7,15.7,10.7S-14.4,6.9-12,0.6C-11.8,0.3-11.9,0.1-12.2,0L-12.2,0z M-43.5-1.4l2.5-0.7
			c0.2-0.1,0.4-0.3,0.4-0.6c-0.9-4.7,0.2-8.5,3-11.5c0.3-0.2,0.3-0.6,0-0.9l-1.8-1.8c-0.2-0.2-0.5-0.2-0.8,0.1
			c-3.5,3.7-5.3,9.3-4,15.1C-44-1.5-43.8-1.3-43.5-1.4L-43.5-1.4z M-18.2-13.1c0-0.1-0.1-0.3-0.2-0.4c-2-2.1-4.1-3.3-6.9-4
			c-0.2,0-0.3-0.1-0.5,0c-0.1,0.1-0.2,0.3-0.1,0.6l0.5,6.6c0,0.2,0.1,0.4,0.3,0.5c0.2,0.1,0.4,0.1,0.6,0l5.9-2.9
			C-18.5-12.7-18.3-12.8-18.2-13.1C-18.2-13-18.2-13-18.2-13.1L-18.2-13.1z M-17-1.3c0.1,0.1,0.3,0.2,0.5,0.1c0.1,0,0.2-0.2,0.3-0.4
			c0.8-2.8,0.8-5.2,0-8c-0.1-0.2-0.1-0.4-0.3-0.4c-0.1-0.1-0.3,0-0.6,0.2l-5.4,3.7c-0.2,0.1-0.3,0.3-0.3,0.5s0.1,0.4,0.3,0.5
			L-17-1.3z M-25.9,6.3c0.1,0.1,0.3,0.1,0.5,0c2.8-0.7,4.9-1.9,6.9-4c0.1-0.1,0.3-0.3,0.2-0.4c0-0.2-0.2-0.3-0.4-0.4l-5.9-2.9
			c-0.2-0.1-0.4-0.1-0.6,0s-0.3,0.3-0.3,0.6L-26,5.7C-26,5.9-26,6.2-25.9,6.3L-25.9,6.3z M-27.6-1.3c2.3,0,4.2-1.9,4.2-4.2
			s-1.9-4.2-4.2-4.2s-4.2,1.9-4.2,4.2C-31.9-3.2-30-1.3-27.6-1.3L-27.6-1.3z M-36.9,2c0,0.1,0.1,0.3,0.2,0.4c2,2.1,4.1,3.3,6.9,4
			c0.2,0.1,0.4,0.1,0.5,0s0.2-0.3,0.1-0.6l-0.5-6.6c0-0.2-0.1-0.4-0.3-0.5c-0.2-0.1-0.4-0.1-0.6,0l-5.9,2.9
			C-36.7,1.6-36.9,1.8-36.9,2L-36.9,2L-36.9,2z M-37-13c0,0.2,0.2,0.3,0.4,0.4l5.9,2.9c0.2,0.1,0.5,0.1,0.6,0
			c0.2-0.1,0.3-0.3,0.3-0.5l0.5-6.5c0-0.3,0-0.5-0.1-0.6s-0.3-0.1-0.5,0c-2.8,0.7-4.9,1.9-6.9,4C-37-13.3-37.1-13.1-37-13L-37-13z
			 M-38.2-9.7c-0.2-0.1-0.4-0.3-0.6-0.2c-0.1,0-0.2,0.2-0.3,0.4c-0.8,2.8-0.8,5.2,0,8c0.1,0.2,0.1,0.4,0.3,0.4
			c0.1,0.1,0.3,0,0.6-0.2l5.4-3.7c0.2-0.1,0.3-0.3,0.3-0.5s-0.1-0.4-0.3-0.5L-38.2-9.7z M-38.3-17.9l1.7,1.9c0.2,0.3,0.5,0.2,0.9,0
			c2.2-1.7,5-2.8,8.1-2.8c3,0,5.9,1,8.1,2.8c0.3,0.3,0.6,0.3,0.9,0l1.8-1.9c0.2-0.2,0.2-0.5-0.2-0.8c-2.9-2.3-6.6-3.7-10.5-3.7
			c-4,0-7.6,1.4-10.5,3.7C-38.5-18.4-38.5-18.2-38.3-17.9L-38.3-17.9z M-6.3-5.5c0,0.2,0,0.5,0,0.7v0.1h-0.1
			c-0.9,0.5-2.1,0.8-3.3,0.8c0,0.1-0.2,1.2-0.2,1.4C-8.8-2.2-7.7-1.6-7-0.8l0,0l0,0c-0.1,0.4-0.2,1-0.4,1.3v0.1h-0.1
			c-1,0.3-2.2,0.3-3.4,0c0.1,0.2-0.3,1.2-0.3,1.4c1,0.6,1.8,1.5,2.3,2.4v0.1v0.1c-0.1,0.2-0.4,0.7-0.7,1l0,0h-0.1
			c-1,0-2.2-0.3-3.2-0.9c-0.1,0.1-0.8,1-0.9,1.1c0.8,0.8,1.4,1.9,1.7,2.9v0.1l0,0c-0.2,0.3-0.7,0.7-1,1l0,0h-0.1
			c-1-0.3-2.1-0.9-2.9-1.7c-0.1,0.1-1,0.8-1.1,0.8c0.5,1,0.9,2.1,0.9,3.2v0.1h-0.1c-0.3,0.3-0.8,0.6-1.2,0.7l0,0h-0.1
			c-0.9-0.5-1.8-1.4-2.4-2.4c-0.1,0.1-1.2,0.5-1.3,0.6c0.1,0.6,0.2,1.1,0.2,1.7c0,0.6-0.1,1.1-0.2,1.7v0.1h-0.1
			c-0.3,0.1-0.9,0.3-1.3,0.4h-0.1l0,0c-0.8-0.7-1.4-1.8-1.7-2.9c-0.1,0-1.2,0.2-1.4,0.2c0,1.2-0.3,2.3-0.9,3.2l0,0H-27
			c-0.4,0.1-1,0.1-1.4,0l0,0l0,0c-0.5-0.9-0.9-2.1-0.9-3.2c-0.2,0-1.3-0.2-1.4-0.2c-0.3,1.1-0.9,2.1-1.7,2.9l0,0h-0.1
			c-0.4-0.1-1-0.2-1.3-0.4l0,0l0,0c-0.2-0.5-0.2-1.1-0.2-1.7c0-0.6,0.1-1.1,0.2-1.7c-0.1-0.1-1.1-0.5-1.3-0.5
			c-0.6,1-1.5,1.9-2.4,2.4l0,0h-0.1c-0.4-0.2-0.9-0.5-1.2-0.7l0,0v-0.1c0-1,0.3-2.2,0.9-3.2c-0.1-0.1-1-0.8-1.2-0.9
			C-39.9,9-41,9.6-42,9.9h-0.1h-0.1c-0.3-0.3-0.7-0.7-1-1V8.8V8.7c0.3-1,0.9-2.1,1.7-2.9c-0.1-0.1-0.8-1-0.9-1.1
			c-1,0.6-2.2,0.9-3.2,0.9h-0.1l0,0c-0.2-0.3-0.5-0.8-0.7-1.2V4.3l0,0c0.5-0.9,1.4-1.8,2.4-2.4c-0.1-0.2-0.5-1.1-0.6-1.3
			c-1.1,0.3-2.3,0.3-3.4,0l0,0l0,0c-0.1-0.3-0.3-0.9-0.4-1.3v-0.1l0,0c0.7-0.8,1.8-1.4,2.9-1.7c0-0.2-0.2-1.3-0.2-1.4
			c-1.2,0-2.3-0.3-3.3-0.9l0,0v-0.1c0-0.2,0-0.4,0-0.7c0-0.2,0-0.5,0-0.7v-0.1l0,0c1.1-0.5,2.3-0.8,3.4-0.8c0-0.2,0.2-1.3,0.2-1.4
			c-1.1-0.3-2.2-0.9-2.9-1.7l0,0v-0.1c0-0.4,0.2-1,0.4-1.3v-0.1h0.1c1-0.3,2.2-0.3,3.4,0c0.1-0.1,0.5-1.1,0.5-1.3
			c-1-0.6-1.9-1.5-2.4-2.4v-0.1v-0.1c0.2-0.4,0.5-0.9,0.7-1.2l0,0h0.1c1.1,0,2.2,0.3,3.2,0.9c0.1-0.1,0.8-1,0.9-1.2
			c-0.8-0.8-1.4-1.9-1.7-2.9l0,0l0,0c0.3-0.3,0.7-0.7,1-1l0,0l0,0c1,0.3,2.1,0.9,2.9,1.7c0.1-0.1,0.9-0.7,1.1-0.8
			c-0.6-1-0.9-2.1-0.9-3.2v-0.2h0.1c0.3-0.2,0.8-0.5,1.2-0.7l0,0h0.1c0.9,0.5,1.8,1.4,2.4,2.4c0.1-0.1,1.2-0.5,1.4-0.6
			c-0.1-0.6-0.2-1.1-0.2-1.7s0.1-1.1,0.2-1.7V-26h0.1c0.3-0.1,0.9-0.3,1.3-0.4h0.1l0,0c0.8,0.7,1.4,1.8,1.7,2.9
			c0.2,0,1.3-0.2,1.4-0.2c0-1.1,0.3-2.3,0.9-3.2l0,0h0.1c0.4,0,1,0,1.4,0h0.1l0,0c0.6,0.9,0.9,2.1,0.9,3.2c0.2,0,1.3,0.2,1.4,0.2
			c0.3-1.1,0.9-2.2,1.7-2.9l0,0h0.1c0.4,0,1,0.2,1.3,0.4l0,0v0.1c0.2,0.5,0.2,1.1,0.2,1.6c0,0.6-0.1,1.1-0.2,1.7
			c0.1,0.1,1.2,0.5,1.4,0.6c0.6-1,1.4-1.8,2.4-2.4h0.1h0.1c0.4,0.2,0.9,0.4,1.2,0.7l0,0v0.1c0,1-0.3,2.2-0.9,3.2
			c0.1,0.1,1,0.8,1.1,0.9c0.8-0.8,1.9-1.4,2.9-1.7l0,0l0,0c0.3,0.2,0.7,0.7,1,1l0,0v0.1c-0.3,1-0.9,2.1-1.7,2.9
			c0.1,0.1,0.8,1,0.9,1.1c1-0.6,2.2-0.9,3.3-0.9l0,0l0,0c0.3,0.3,0.6,0.8,0.7,1.2v0.1v0.1c-0.5,0.9-1.4,1.8-2.4,2.4
			c0.1,0.1,0.5,1.1,0.5,1.3c1.1-0.3,2.3-0.3,3.3,0h0.1v0.1c0.1,0.4,0.3,0.9,0.4,1.3v0.1l0,0c-0.8,0.9-1.8,1.5-3,1.8
			c0,0.2,0.2,1.2,0.2,1.4c1.2,0,2.3,0.3,3.2,0.9h0.1v0.1C-6.3-6-6.3-5.8-6.3-5.5L-6.3-5.5z M-18.3,4.5l1.1,1.2l-1.9-0.5
			c-0.2,0.1-0.3,0.2-0.4,0.3l1.6,2.2c0.1-0.1,0.3-0.2,0.4-0.3l-1-1.3l1.9,0.6c0.1-0.1,0.3-0.2,0.4-0.4l-1.9-2
			C-18,4.3-18.1,4.4-18.3,4.5L-18.3,4.5z M-19.5,7.7c0-0.2,0-0.3-0.1-0.4c-0.2-0.4-0.8-0.5-1.2-0.3c-0.3,0.2-0.4,0.5-0.4,0.8
			c0,0.1,0,0.3,0.1,0.4l0.1,0.1c0.3,0.3,0.7,0.4,1.1,0.2c0.1,0,0.2-0.1,0.2-0.2C-19.6,8.1-19.5,7.9-19.5,7.7L-19.5,7.7z M-19.2,7.1
			c0.1,0.2,0.2,0.4,0.2,0.7c0,0.2,0,0.4-0.1,0.5c-0.1,0.2-0.3,0.5-0.6,0.6c-0.6,0.4-1.4,0.1-1.8-0.5c0,0,0-0.1-0.1-0.1
			c-0.1-0.2-0.1-0.4-0.1-0.6c0-0.5,0.2-0.9,0.7-1.2C-20.4,6.2-19.6,6.4-19.2,7.1L-19.2,7.1z M-16.4,3.5l0.3,0.5l0.3,0.5l0.4-0.5
			l0.1-0.1L-16.4,3.5z M-16.7,2.9l2.7,0.9C-14.1,3.9-14.1,4-14.2,4c0,0.1-0.1,0.1-0.1,0.2L-14.8,4l-0.7,0.9l0.3,0.4
			c-0.1,0.1-0.2,0.3-0.4,0.4L-16.7,4l-0.4-0.6L-16.7,2.9z M-13.8,2.5l-2-1.1l-0.3,0.5l2.4,1.3l0.9-1.6l-0.4-0.2L-13.8,2.5z
			 M-29.3,8.2l-0.2,1.6L-30.3,8c-0.2,0-0.3-0.1-0.5-0.1l-0.6,2.6c0.2,0.1,0.4,0.1,0.6,0.1l0.3-1.6l0.8,1.8c0.2,0,0.4,0.1,0.6,0.1
			l0.3-2.7C-28.9,8.2-29.1,8.2-29.3,8.2L-29.3,8.2z M-29.4-21.4l0.2,2.2l0.6-0.1l-0.2-2.2l0.9-0.1v-0.5c-1,0.1-1.4,0.1-2.3,0.2
			l0.1,0.5H-29.4z M-26.7-20.2c0.3,0,0.6,0,0.8,0.1l-0.1-0.6l-0.2-0.6l-0.3,0.6L-26.7-20.2z M-27.2-19.3c-0.2,0-0.3,0-0.5,0l1.3-2.6
			l0.6,0.1l0.3,1.2l0.4,1.6c-0.2,0-0.4-0.1-0.5-0.1l-0.2-0.5c-0.4-0.1-0.8-0.1-1.1-0.1L-27.2-19.3z M-32.7-20c0,0.5,0.5,0.8,0.9,0.8
			c0.5,0,0.8-0.4,0.8-0.9c0,0,0,0,0-0.1c0-0.5-0.4-0.8-0.9-0.8C-32.4-20.9-32.7-20.5-32.7-20L-32.7-20z M-33.2-19.9V-20
			c0-0.7,0.5-1.3,1.2-1.3c0.7-0.1,1.4,0.5,1.4,1.2v0.1c0,0.7-0.5,1.3-1.2,1.3C-32.5-18.7-33.1-19.2-33.2-19.9L-33.2-19.9z M-27.6-3
			c1.4,0,2.5-1.1,2.5-2.5c0-1.2-0.8-2.2-1.9-2.4c0-0.1,0-0.6,0-0.6h-1.3c0,0,0,0.6,0,0.7c-1.1,0.3-1.8,1.3-1.8,2.4
			C-30.1-4.1-29-3-27.6-3L-27.6-3z M-27.6-1.7c-2.1,0-3.8-1.7-3.8-3.8s1.7-3.8,3.8-3.8s3.8,1.7,3.8,3.8S-25.5-1.7-27.6-1.7
			L-27.6-1.7z M-35.2,6.6c0.4,0.2,0.7,0.4,1.1,0.6l0.2-0.4c-0.6-0.3-1.1-0.6-1.5-0.9l-1.5,2.2c0.6,0.4,1.1,0.7,1.7,1l0.2-0.4
			L-36.2,8l0.4-0.6l0.8,0.5l0.2-0.4c-0.3-0.1-0.5-0.3-0.8-0.5L-35.2,6.6z M-38.2,3.3l-1.2,1.1l0.6-1.8c-0.1-0.2-0.2-0.3-0.3-0.4
			l-2.2,1.5c0.1,0.2,0.2,0.3,0.3,0.4l1.3-0.9l-0.6,1.9c0.1,0.1,0.2,0.3,0.4,0.4l2.1-1.8C-37.9,3.5-38.1,3.4-38.2,3.3L-38.2,3.3z
			 M-39.7,1.1L-42,2.4c0.1,0.2,0.2,0.4,0.3,0.5l2.3-1.3C-39.5,1.4-39.6,1.3-39.7,1.1L-39.7,1.1z M-36.8,5.3L-38.2,7l-0.5-0.4
			l1.5-1.6c-0.2-0.2-0.4-0.4-0.6-0.6l0.3-0.3c0.6,0.5,1.1,0.9,1.7,1.4l-0.3,0.4C-36.4,5.7-36.6,5.5-36.8,5.3L-36.8,5.3z"/>
	</g>
</g>
</svg>
