<?xml version="1.0" encoding="UTF-8"?>
<svg width="309px" height="44px" viewBox="0 0 309 44" version="1.1" xmlns="http://www.w3.org/2000/svg" xmlns:xlink="http://www.w3.org/1999/xlink">
    <title>LOGO</title>
    <defs>
        <polygon id="path-1" points="0.0286956522 0.363836957 113.376043 0.363836957 113.376043 42.9645652 0.0286956522 42.9645652"></polygon>
    </defs>
    <g id="扶輪社" stroke="none" stroke-width="1" fill="none" fill-rule="evenodd">
        <g id="扶輪社_01-about" transform="translate(-120.000000, -28.000000)">
            <g id="LOGO" transform="translate(120.000000, 28.000000)">
                <g id="Group-4">
                    <mask id="mask-2" fill="white">
                        <use xlink:href="#path-1"></use>
                    </mask>
                    <g id="Clip-2"></g>
                    <path d="M53.2533913,16.4201304 C52.0333478,16.4933043 50.8319565,17.1906087 50.0839565,17.7205217 L50.0839565,16.9691739 C50.0839565,16.7156957 49.8783043,16.5124348 49.6238696,16.5124348 L47.7801739,16.5124348 C47.5266957,16.5124348 47.3210435,16.7156957 47.3210435,16.9691739 L47.3210435,28.139913 C47.3210435,28.3943478 47.5266957,28.5990435 47.7801739,28.5990435 L49.6238696,28.5990435 C49.8783043,28.5990435 50.0839565,28.3943478 50.0839565,28.139913 L50.0839565,20.4198261 C50.5005217,20.073087 51.7884783,19.1065217 53.3232174,18.9711739 C53.5585217,18.9501304 53.7421739,18.7526087 53.7421739,18.5144348 L53.7421739,16.8768696 C53.7421739,16.7501304 53.691,16.6305652 53.5963043,16.5444783 C53.5049565,16.4555217 53.3786957,16.4081739 53.2533913,16.4201304 L53.2533913,16.4201304 Z M38.8634783,23.364 C37.7797391,23.4658696 37.2646522,23.9618261 37.2646522,24.9154783 C37.2646522,25.5027826 37.4258261,26.4927826 38.5014348,26.4927826 C39.7769565,26.4927826 41.5106522,26.0111739 41.5283478,26.0063913 L41.5283478,23.2219565 L38.8634783,23.364 Z M44.2903043,20.3131739 L44.2903043,28.3283478 C44.2903043,28.4617826 44.2324348,28.5885217 44.1329565,28.6746087 C44.031087,28.7626087 43.8976522,28.8018261 43.7685217,28.7826957 C42.8301739,28.6516522 42.3839565,28.3575217 41.9401304,28.017 C41.9214783,28.0251304 39.8458261,28.8630435 37.9925652,28.8630435 C35.7595652,28.8630435 34.4792609,27.454087 34.4792609,24.9910435 C34.4792609,22.5853913 35.6505217,21.5217391 38.5263043,21.3074783 L41.5283478,21.0659565 L41.5283478,20.337087 C41.5283478,19.4154783 40.9807391,18.885087 40.0266087,18.885087 C38.710913,18.885087 36.8342174,19.0386087 35.8341739,19.1285217 C35.7083913,19.141913 35.5821304,19.1017391 35.4874348,19.0175652 C35.3951304,18.9372174 35.3372609,18.8166957 35.3324783,18.6923478 L35.2717391,17.1595217 C35.2626522,16.9266087 35.4295652,16.7228696 35.6576957,16.688913 C36.5525217,16.5454348 38.7807391,16.2211739 40.172,16.2211739 C42.9827391,16.2211739 44.2903043,17.523 44.2903043,20.3131739 L44.2903043,20.3131739 Z M5.94,14.5506087 L4.92943478,14.5506087 C3.80169565,14.5506087 3.15891304,14.6343043 2.83369565,14.7007826 L2.83369565,19.4757391 C3.37317391,19.512087 4.41004348,19.5675652 5.80513043,19.5527391 C7.60626087,19.5336087 8.72347826,18.5775652 8.72347826,17.0605217 C8.72347826,15.8476522 7.99173913,14.5506087 5.94,14.5506087 L5.94,14.5506087 Z M11.748,27.9543478 C11.8106522,28.095913 11.7963043,28.2594783 11.7135652,28.3900435 C11.627,28.521087 11.484,28.5990435 11.3276087,28.5990435 L9.185,28.5990435 C9.00517391,28.5990435 8.83778261,28.491913 8.767,28.3259565 L6.02273913,22.1511304 C4.65826087,22.1415652 3.47408696,22.0693478 2.83369565,22.0243913 L2.83369565,28.139913 C2.83369565,28.3943478 2.62995652,28.5990435 2.37552174,28.5990435 L0.459608696,28.5990435 C0.205652174,28.5990435 -0.00047826087,28.3943478 -0.00047826087,28.139913 L-0.00047826087,12.6533478 C-0.00047826087,12.419 0.176,12.2224348 0.408913043,12.1966087 C2.86669565,11.9196957 4.83330435,11.8900435 5.56265217,11.8900435 C5.81469565,11.8900435 5.94956522,11.8924348 5.94956522,11.8924348 C10.6637826,11.8924348 11.6556957,14.6768696 11.6556957,17.0107826 C11.6556957,18.9596957 10.7245217,20.3676957 8.811,21.3170435 L11.748,27.9543478 Z M65.5351304,16.6898696 C65.45,16.5774783 65.3165652,16.5124348 65.1721304,16.5124348 L63.3815217,16.5124348 C63.1734783,16.5124348 62.9936522,16.652087 62.9376957,16.852 L60.5353913,25.9093043 L60.3522174,25.9093043 L57.9475217,16.852 C57.8944348,16.652087 57.7122174,16.5124348 57.5036957,16.5124348 L55.7159565,16.5124348 C55.5724783,16.5124348 55.4376087,16.5774783 55.350087,16.6898696 C55.2635217,16.8036957 55.2343478,16.949087 55.2697391,17.084913 L57.9145217,27.2417391 C58.0460435,27.7448696 58.5118696,28.5990435 59.4339565,28.5990435 L59.9461739,28.5990435 C59.9026522,28.7688261 59.8553043,28.9496087 59.8041304,29.106 L59.7806957,29.1825217 C59.6372174,29.6512174 59.4210435,30.36 58.1144348,30.36 L55.8259565,30.2193913 C55.6968261,30.2083913 55.570087,30.2557391 55.4792174,30.3480435 C55.3845217,30.4408261 55.3323913,30.567087 55.3395652,30.6976522 L55.3964783,31.8961739 C55.4046087,32.0975217 55.5466522,32.2687391 55.7456087,32.3189565 C56.4199565,32.4853913 57.7074348,32.6805217 58.7663043,32.7206957 C58.8174783,32.7245217 58.8633913,32.7245217 58.9121739,32.7245217 C60.6386957,32.7245217 61.809,31.6073043 62.3996522,29.4087391 C63.0859565,26.8337826 63.9434783,23.5203913 64.5695217,21.1013478 C64.8526522,20.0118696 65.096087,19.0730435 65.2725652,18.4058696 L65.616913,17.0873043 C65.6537391,16.949087 65.6202609,16.8036957 65.5351304,16.6898696 L65.5351304,16.6898696 Z M21.4987826,22.4954783 C21.4987826,19.7913913 20.7636957,18.7406522 18.8822174,18.7406522 C16.9323478,18.7406522 16.2412609,19.723 16.2412609,22.4954783 C16.2412609,25.0087391 16.6611739,26.3684348 18.8822174,26.3684348 C21.0693043,26.3684348 21.4987826,24.9484783 21.4987826,22.4954783 L21.4987826,22.4954783 Z M24.3071304,22.4954783 C24.3071304,26.8988261 22.6336957,28.8630435 18.8822174,28.8630435 C15.1135217,28.8630435 13.4319565,26.8988261 13.4319565,22.4954783 C13.4319565,18.1562174 15.1135217,16.2211739 18.8822174,16.2211739 C22.583,16.2211739 24.3071304,18.2126522 24.3071304,22.4954783 L24.3071304,22.4954783 Z M33.0234348,26.6362609 L33.1018696,28.1552174 C33.1133478,28.3814348 32.9536087,28.5851739 32.7302609,28.6277391 C32.0874783,28.7473043 31.2046087,28.8917391 30.6507826,28.8917391 C27.8668261,28.8917391 27.017913,27.8252174 27.017913,24.3367826 L27.017913,19.0070435 L25.950913,19.0070435 C25.6964783,19.0070435 25.4903478,18.7999565 25.4903478,18.5464783 L25.4903478,16.9691739 C25.4903478,16.7156957 25.6964783,16.5124348 25.950913,16.5124348 L27.017913,16.5124348 L27.017913,14.6381304 C27.017913,14.4248261 27.1623478,14.2402174 27.3670435,14.1904783 L29.2121739,13.740913 C29.348,13.7088696 29.4914783,13.7385217 29.6024348,13.8260435 C29.7138696,13.9135652 29.7798696,14.045087 29.7798696,14.1871304 L29.7798696,16.5124348 L32.5906087,16.5124348 C32.8450435,16.5124348 33.0483043,16.7156957 33.0483043,16.9691739 L33.0483043,18.5464783 C33.0483043,18.7999565 32.8450435,19.0070435 32.5906087,19.0070435 L29.7798696,19.0070435 L29.7798696,23.9474783 C29.7798696,25.6577391 29.8401304,26.2503043 31.0391304,26.2503043 C31.4815217,26.2503043 32.1726087,26.2182609 32.5442174,26.2010435 C32.7914783,26.1948261 33.0119565,26.3813478 33.0234348,26.6362609 L33.0234348,26.6362609 Z" id="Fill-1" fill="#233E77" mask="url(#mask-2)"></path>
                    <path d="M84.1198696,7.85686957 L84.1930435,7.98217391 L84.4651739,8.45230435 L85.0285652,8.15626087 C85.0806957,8.12995652 85.1113043,8.06395652 85.1208696,7.98217391 C85.1313913,7.72869565 84.9482174,7.38482609 84.6818261,7.54456522 C84.4733043,7.65313043 84.3470435,7.72869565 84.1198696,7.85686957 L84.1198696,7.85686957 Z M83.5316087,7.98217391 L83.3838261,7.71626087 C83.7731304,7.469 84.1930435,7.25330435 84.599087,7.03665217 C85.0749565,6.77265217 85.7478696,7.41065217 85.7005217,7.98217391 C85.6923913,8.08404348 85.6641739,8.1753913 85.603913,8.26721739 L86.5786087,8.97743478 C86.3954348,9.06352174 86.2557826,9.13717391 86.0367391,9.23186957 L85.1825652,8.60821739 L84.7124348,8.86026087 L85.2131739,9.68956522 C85.019,9.81295652 84.9018261,9.88947826 84.6746522,10.0224348 L83.5316087,7.98217391 Z M96.4207391,34.7217391 L97.3083913,37.2574783 C97.4810435,37.1972174 97.6666087,37.145087 97.8421304,37.068087 L96.9803043,34.5438261 C96.7440435,34.6246522 96.635,34.6576522 96.4207391,34.7217391 L96.4207391,34.7217391 Z M92.871087,37.1144783 L92.6625652,36.6017826 L92.4521304,36.0465217 L92.0896087,37.1484348 L92.871087,37.1144783 Z M93.2206957,36.6017826 L93.8017826,38.0112174 C93.6128696,38.017913 93.4354348,38.0384783 93.2661304,38.0571304 L93.0863043,37.6018261 L91.925087,37.6353043 L91.7916522,38.1106957 C91.6065652,38.0944348 91.4329565,38.0891739 91.2493043,38.0891739 L91.7500435,36.6017826 L92.1063478,35.4740435 L92.1240435,35.4372174 L92.7156522,35.4113913 L92.7462609,35.4826522 L93.2206957,36.6017826 Z M96.1366522,6.96682609 L96.7368696,7.161 C96.9013913,7.2073913 97.1175652,6.95056522 97.1175652,6.72673913 C97.1175652,6.62008696 97.0812174,6.5253913 96.9377391,6.49334783 C96.7167826,6.40821739 96.5642174,6.36947826 96.3226957,6.30921739 L96.1983478,6.72673913 L96.1366522,6.96682609 Z M95.7688696,8.36813043 C95.5531739,8.30643478 95.3948696,8.27917391 95.1581304,8.21173913 L95.5933478,6.72673913 L95.9118696,5.6673913 C96.3724348,5.78121739 96.809087,5.93043478 97.2457391,6.07247826 C97.493,6.14804348 97.6254783,6.42830435 97.6503478,6.72673913 C97.6666087,7.13134783 97.4657391,7.5703913 97.0573043,7.66269565 L97.216087,8.86026087 C97.0243043,8.78086957 96.8822609,8.7206087 96.6703913,8.63786957 L96.5307391,7.59191304 L96.0185217,7.43456522 L95.7688696,8.36813043 Z M87.6097391,35.3276957 C87.5939565,35.2526087 87.5633478,35.1923478 87.4710435,35.1497826 L86.799087,34.9025217 L86.6460435,35.3276957 L86.5929565,35.4826522 L86.5881739,35.4931739 L87.2013043,35.7227391 C87.3691739,35.795913 87.5313043,35.6466957 87.5906087,35.4826522 C87.6097391,35.4372174 87.6274348,35.3817391 87.6097391,35.3276957 L87.6097391,35.3276957 Z M88.1138261,35.3276957 L88.1138261,35.4740435 C88.0722174,35.8313043 87.8297391,36.1947826 87.4366087,36.2397391 L87.5279565,37.4894348 C87.3457391,37.4478261 87.1386522,37.3875652 86.9444783,37.3048261 L86.9229565,36.1297391 L86.3954348,35.904 L85.966913,36.9403913 C85.7942609,36.8834783 85.6201739,36.828 85.4523043,36.7447826 L85.9941739,35.4826522 L86.0592174,35.3276957 L86.5006522,34.2860435 L87.703,34.7499565 C87.9703478,34.846087 88.0932609,35.0837826 88.1138261,35.3276957 L88.1138261,35.3276957 Z M95.7851304,34.948913 C95.0041304,35.1191739 94.4034348,35.2612174 93.6291304,35.3817391 L93.7003913,35.8313043 C93.9868696,35.7863478 94.2494348,35.751913 94.5512174,35.7141304 L94.9414783,37.8796957 L95.5168261,37.7711304 L95.0505217,35.6113043 C95.346087,35.5381304 95.6186957,35.4635217 95.9118696,35.3946522 L95.7851304,34.948913 Z M98.7178261,9.60682609 L99.2974783,8.49008696 L100.862826,7.76217391 C100.698783,7.64404348 100.519913,7.56226087 100.355391,7.45321739 L99.2773913,7.9443913 L99.078913,6.77265217 C98.8526957,6.66647826 98.7178261,6.62008696 98.4834783,6.5253913 L98.7972174,8.22704348 L98.2161304,9.33134783 L98.7178261,9.60682609 Z M104.588478,10.2897826 C104.341217,9.988 103.931348,10.0329565 103.814174,10.2438696 L101.992,12.0741739 C101.724652,12.3525217 101.750478,12.7595217 102.02787,12.9570435 C104.77787,16.0006957 105.926652,19.790913 105.02513,24.4845652 C105.005043,24.7916087 105.198739,25.0393478 105.439304,25.1077391 L107.958304,25.8380435 C108.293565,25.9336957 108.507826,25.7304348 108.580043,25.443 C109.877087,19.6656087 108.101783,13.9857826 104.588478,10.2897826 L104.588478,10.2897826 Z M107.503,27.1843478 L104.98113,26.3244348 C104.849609,26.2746957 104.505739,26.2746957 104.324478,26.7185217 C102.289,31.6020435 97.5484783,34.9441304 92.059,34.9441304 C86.5633043,34.9441304 81.7352609,31.5250435 79.7863478,26.6424783 C79.6404783,26.2746957 79.2870435,26.2746957 79.1531304,26.3244348 L76.6446522,27.1843478 C76.3720435,27.2828696 76.2089565,27.5243913 76.3519565,27.8735217 C78.8145217,34.1593043 84.9410435,38.5966087 92.059,38.5966087 C99.1755217,38.5966087 105.32787,34.1286957 107.8,27.8462609 C107.927696,27.5167391 107.772739,27.2828696 107.503,27.1843478 L107.503,27.1843478 Z M76.2338261,25.8380435 L78.7485217,25.1077391 C78.9852609,25.0393478 79.1794348,24.7916087 79.1603043,24.4845652 C78.2573478,19.7995217 79.4042174,16.0006957 82.1503913,12.9570435 C82.4287391,12.7595217 82.4583913,12.3525217 82.192,12.0741739 L80.3636087,10.2366957 C80.1861739,10.0329565 79.8633478,10.0329565 79.5864348,10.316087 C76.0812609,14.0044348 74.3121739,19.6656087 75.6101739,25.452087 C75.6814348,25.7304348 75.9014348,25.9336957 76.2338261,25.8380435 L76.2338261,25.8380435 Z M101.467826,14.1263913 C101.475,14.0149565 101.40613,13.872913 101.248783,13.7179565 C99.2362609,11.5877826 97.1673043,10.3964348 94.3307391,9.7216087 C94.171,9.68143478 93.9868696,9.64365217 93.8634783,9.75269565 C93.7372174,9.85408696 93.7003913,10.0506522 93.7262174,10.3443043 L94.1939565,16.907 C94.2078261,17.1556957 94.3202174,17.3522609 94.4856957,17.4526957 C94.6683913,17.5555217 94.886,17.5368696 95.1122174,17.4278261 L101.021609,14.5745217 C101.211,14.4836522 101.427652,14.3832174 101.467826,14.180913 C101.467826,14.1689565 101.475,14.1522174 101.467826,14.1263913 L101.467826,14.1263913 Z M102.663,25.8571739 C102.838043,25.9705217 103.041783,26.1077826 103.227348,26.0436957 C103.35313,26.005913 103.460739,25.8686522 103.52913,25.6204348 C104.357478,22.8154348 104.357478,20.4193478 103.52913,17.6468696 C103.478435,17.4737391 103.398087,17.293913 103.252217,17.2288696 C103.105391,17.1757826 102.919826,17.2360435 102.65487,17.4158696 L97.2337826,21.1023043 C97.0243043,21.242913 96.9176522,21.4361304 96.9176522,21.6346087 C96.9176522,21.8321304 97.0243043,22.023913 97.2337826,22.1626087 L102.663,25.8571739 Z M93.8481739,33.4835217 C93.9476522,33.5619565 94.1121739,33.5853913 94.3642174,33.5227391 C97.1840435,32.846 99.2515652,31.6508261 101.266478,29.5359565 C101.387478,29.3963043 101.519,29.2528261 101.479783,29.0945217 C101.442957,28.9419565 101.31287,28.8037391 101.038348,28.6741304 L95.126087,25.806 C94.9027391,25.6998261 94.6846522,25.6998261 94.5038696,25.7940435 C94.3307391,25.9040435 94.2245652,26.090087 94.2078261,26.3493043 L93.731,32.8933478 C93.7262693,33.1076087 93.7003913,33.3524783 93.8481739,33.4835217 L93.8481739,33.4835217 Z M92.059,25.9040435 C94.3938696,25.9040435 96.2906522,24.0096522 96.2906522,21.6747826 C96.2906522,19.3413478 94.3938696,17.4445652 92.059,17.4359565 C89.725087,17.4359565 87.8297391,19.3413478 87.8297391,21.6747826 C87.8297391,24.0096522 89.725087,25.9040435 92.059,25.9040435 L92.059,25.9040435 Z M82.7611304,29.2035652 C82.7611304,29.3159565 82.8381304,29.4556087 82.9801739,29.6048261 C85.0132609,31.7416957 87.0712174,32.9325652 89.8982174,33.5944783 C90.0794783,33.650913 90.256913,33.6762609 90.3822174,33.5782174 C90.509913,33.4835217 90.5453043,33.2874348 90.5242609,32.978 C90.5242609,32.9679565 90.0436087,26.4167391 90.0436087,26.4167391 C90.0235217,26.1680435 89.9288261,25.9791304 89.7547391,25.8782174 C89.5787391,25.7753913 89.3596957,25.7753913 89.1243913,25.8825217 L83.2274348,28.7525652 C83.0217826,28.8486957 82.798913,28.9558261 82.7683043,29.1490435 C82.7683043,29.1619565 82.7611304,29.1873043 82.7611304,29.2035652 L82.7611304,29.2035652 Z M82.676,14.2316087 C82.7008696,14.4291304 82.9256522,14.5295652 83.1222174,14.6223478 L89.024913,17.4895217 C89.2592609,17.601913 89.4768696,17.601913 89.6552609,17.5081739 C89.8212174,17.4005652 89.9288261,17.2111739 89.9441304,16.9605652 L90.4209565,10.4117391 C90.4472609,10.0956087 90.4023043,9.91004348 90.2884783,9.81295652 C90.1641304,9.70630435 89.9785652,9.73595652 89.8011304,9.76895652 C86.9726957,10.4495217 84.9113913,11.6446957 82.8783043,13.7643478 C82.7152174,13.9489565 82.6382174,14.1048696 82.676,14.2316087 L82.676,14.2316087 Z M81.4903913,17.4598696 C81.2976522,17.3355217 81.0929565,17.1925217 80.9246087,17.2666522 C80.7873478,17.3082609 80.686913,17.4526957 80.6161304,17.6856087 C79.795913,20.5011304 79.795913,22.8881304 80.6161304,25.6663478 C80.6716087,25.8471304 80.7342609,26.0274348 80.8987826,26.0733478 C81.0322174,26.1293043 81.2311739,26.0733478 81.4903913,25.8949565 L86.9076522,22.2051739 C87.1075652,22.0688696 87.2309565,21.877087 87.2309565,21.6843478 C87.2309565,21.473913 87.1075652,21.2902609 86.9076522,21.1482174 L81.4903913,17.4598696 Z M81.3722609,9.26391304 L83.1222174,11.2128261 C83.3661304,11.4753913 83.6358696,11.4433478 83.9883478,11.1664348 C86.2003043,9.43273913 89.0363913,8.40686957 92.059,8.40686957 C95.0849565,8.40686957 97.9234348,9.42843478 100.155478,11.1664348 C100.504609,11.4246957 100.766217,11.4753913 101.021609,11.2128261 L102.773,9.26391304 C102.970522,9.04869565 102.970522,8.75169565 102.590783,8.43317391 C99.6561739,6.14804348 96.0338261,4.7386087 92.0518261,4.7386087 C88.0932609,4.7386087 84.4192609,6.14804348 81.5363043,8.44369565 C81.1589565,8.75169565 81.1766522,9.04869565 81.3722609,9.26391304 L81.3722609,9.26391304 Z M113.376043,21.6915217 C113.376043,21.9397391 113.364087,22.1884348 113.336826,22.3873913 L113.329652,22.4414348 L113.271783,22.4715652 C112.366435,23.010087 111.19613,23.3171304 110.022478,23.3496522 C109.993783,23.4974348 109.867522,24.5577391 109.845043,24.7069565 C110.939304,25.0226087 112.001043,25.6204348 112.740435,26.3846957 L112.770087,26.4320435 L112.770087,26.4803478 C112.712217,26.8983478 112.564435,27.457913 112.40087,27.8213913 L112.381739,27.8792609 L112.328652,27.8878696 C111.302783,28.182 110.093261,28.1719565 108.975087,27.8950435 C108.922,28.0332609 108.507826,29.0189565 108.466217,29.1619565 C109.446174,29.7822609 110.313739,30.633087 110.801087,31.5417826 L110.825957,31.5924783 L110.810652,31.6460435 C110.657609,32.008087 110.371609,32.5313043 110.114783,32.846 L110.087522,32.8933478 L110.022478,32.8933478 C108.975087,32.9048261 107.806217,32.5939565 106.784652,32.0257826 C106.690913,32.1477391 106.009391,33.0483043 105.917087,33.1702609 C106.722,33.9986087 107.331304,35.0493478 107.578565,36.0843043 L107.595304,36.1393043 L107.565652,36.1756522 C107.331304,36.4932174 106.901826,36.9131304 106.590478,37.1651739 L106.553652,37.1972174 L106.47713,37.1814348 C105.468957,36.9131304 104.40387,36.3038261 103.575522,35.5036957 C103.453565,35.596 102.608478,36.2564783 102.483174,36.3497391 C103.024087,37.3411739 103.35313,38.4808696 103.35313,39.512 L103.35313,39.6545217 L103.289043,39.6908696 C102.977696,39.9414783 102.459261,40.2408696 102.090043,40.392 L102.052261,40.4077826 L101.992,40.3876957 C101.084261,39.8596957 100.215739,38.9978696 99.6217391,38.0112174 C99.4787391,38.0743478 98.4490435,38.5143478 98.3093913,38.5755652 C98.4490435,39.1260435 98.5332174,39.700913 98.5485217,40.2700435 C98.5485217,40.8444348 98.4490435,41.4183478 98.3093913,41.9377391 L98.3012609,41.9893913 L98.2467391,42.0195217 C97.9023913,42.1625217 97.3213043,42.3064783 96.9176522,42.3767826 L96.855,42.3858696 L96.8205652,42.3428261 C96.0386087,41.5991304 95.4412609,40.5426522 95.126087,39.4383478 C94.9878696,39.447913 93.9213478,39.5923478 93.7711739,39.6243913 C93.7534783,40.7827391 93.4354348,41.9563913 92.8835217,42.8665217 L92.8538696,42.9138696 L92.7916957,42.922 C92.4224783,42.9793913 91.8294348,42.9793913 91.4257826,42.922 L91.3760435,42.9138696 L91.3406522,42.8665217 C90.806913,41.9563913 90.4874348,40.7827391 90.4611304,39.6243913 C90.3028261,39.609087 89.1798696,39.447913 89.024913,39.4383478 C88.716913,40.5354783 88.1138261,41.5857391 87.3538696,42.339 L87.3122609,42.3767826 L87.2496087,42.3672174 C86.8335217,42.3064783 86.2863913,42.1457826 85.9186087,41.9946522 L85.8746087,41.9716957 L85.8559565,41.9257826 C85.7005217,41.4083043 85.6201739,40.8286522 85.6201739,40.2537826 C85.6201739,39.6908696 85.7005217,39.1260435 85.844,38.5755652 C85.7005217,38.5143478 84.7306087,38.1197826 84.5895217,38.0571304 C83.9883478,39.0619565 83.1222174,39.9338261 82.2063478,40.4431739 L82.1580435,40.4699565 L82.0996957,40.4546522 C81.7199565,40.2858261 81.2216087,39.9993478 80.8987826,39.7563913 L80.8586087,39.7176522 L80.8586087,39.609087 C80.8586087,38.5650435 81.1766522,37.4172174 81.7199565,36.4123913 C81.6003913,36.3191304 80.694087,35.6313913 80.5697391,35.5381304 C79.7399565,36.3382609 78.6834783,36.9403913 77.6623913,37.2015217 L77.6102609,37.2187391 L77.5547826,37.1814348 C77.242,36.9293913 76.8397826,36.5247826 76.5877391,36.2062609 L76.5533043,36.1507826 L76.5686087,36.0967391 C76.8397826,35.0670435 77.4514783,34.0163043 78.2468261,33.1994348 C78.1554783,33.0765217 77.4706087,32.187913 77.3735217,32.0544783 C76.3629565,32.6207391 75.183087,32.9478696 74.1347391,32.9215652 L74.0787826,32.9215652 L74.0433913,32.8861739 C73.7985217,32.561913 73.5048696,32.0434783 73.3475217,31.6766522 L73.324087,31.6221304 L73.3475217,31.5738261 C73.8755217,30.6493478 74.7368696,29.7975652 75.7201739,29.2083478 C75.656087,29.0567391 75.2376087,28.0638696 75.1663478,27.9242174 C74.0481739,28.2035217 72.8319565,28.2106957 71.8089565,27.9242174 L71.7596957,27.908913 L71.7286087,27.8625217 C71.5903913,27.5167391 71.4387826,26.9375652 71.3761304,26.5276957 L71.3656087,26.464087 L71.4019565,26.4167391 C72.1466087,25.6582174 73.1925652,25.0570435 74.3121739,24.7256087 C74.2987826,24.5692174 74.1347391,23.4414783 74.1194348,23.2855652 C72.950087,23.2702609 71.7759565,22.9684783 70.8615217,22.4251739 L70.8165652,22.3945652 L70.8117826,22.331913 C70.786913,22.1425217 70.7787826,21.8938261 70.7787826,21.6432174 C70.7787826,21.3983478 70.786913,21.1577826 70.8117826,20.953087 L70.8165652,20.8904348 L70.8615217,20.8641304 C71.7759565,20.326087 72.950087,20.0147391 74.1194348,19.9970435 C74.1428696,19.8430435 74.281087,18.7463913 74.2987826,18.5981304 C73.1925652,18.2810435 72.136087,17.675087 71.3856957,16.9189565 L71.355087,16.8826087 L71.3656087,16.8233043 C71.413913,16.4019565 71.5726957,15.8376087 71.7286087,15.4884783 L71.7467826,15.4373043 L71.8008261,15.422 C72.8118696,15.1235652 74.0338261,15.1321739 75.1567826,15.4081304 C75.219913,15.2708696 75.6293043,14.2823043 75.6905217,14.133087 C74.699087,13.5333478 73.8291304,12.6801304 73.3111739,11.7585217 L73.2848696,11.7006522 L73.3111739,11.6446957 C73.4742609,11.2745217 73.7664783,10.7737826 73.9960435,10.459087 L74.0338261,10.4117391 L74.0969565,10.4117391 C75.1567826,10.3964348 76.3261304,10.7206957 77.3343043,11.2802609 C77.429,11.1664348 78.1176957,10.2366957 78.2114348,10.1123478 C77.4098696,9.27826087 76.8053478,8.23326087 76.5427826,7.19782609 L76.5317826,7.15382609 L76.5533043,7.10791304 C76.8101304,6.787 77.2348261,6.36947826 77.5452174,6.12413043 L77.5949565,6.09352174 L77.6423043,6.10308696 C78.6834783,6.36947826 79.7342174,6.98930435 80.5520435,7.78465217 C80.6716087,7.68995652 81.4903913,7.05913043 81.6123478,6.96682609 C81.0489565,5.98113043 80.7342609,4.83091304 80.7342609,3.80982609 L80.7342609,3.65582609 L80.7849565,3.62043478 C81.0929565,3.38034783 81.6123478,3.08191304 81.9825217,2.93173913 L82.0217391,2.90686957 L82.0843913,2.93269565 C82.996913,3.45017391 83.8544348,4.31247826 84.4546522,5.302 C84.599087,5.24747826 85.6641739,4.785 85.8095652,4.72665217 C85.6713478,4.17521739 85.5838261,3.60513043 85.592913,3.03934783 C85.592913,2.45108696 85.6641739,1.89008696 85.8191304,1.37452174 L85.8263043,1.31043478 L85.8817826,1.29608696 C86.2251739,1.15165217 86.799087,0.998130435 87.2013043,0.935478261 L87.2663478,0.926869565 L87.3122609,0.968478261 C88.0722174,1.70691304 88.6781739,2.76482609 88.9976522,3.8806087 C89.1540435,3.86530435 90.2731739,3.72421739 90.4223913,3.69743478 C90.4472609,2.54817391 90.7605217,1.37452174 91.3100435,0.462 L91.3334783,0.414652174 L91.3913478,0.399347826 C91.7916522,0.352 92.3832609,0.352 92.7716087,0.399347826 L92.8223043,0.414652174 L92.8538696,0.462 C93.4067391,1.37452174 93.7262174,2.54817391 93.7262174,3.68643478 C93.8945652,3.72421739 94.9878696,3.86530435 95.1437826,3.8806087 C95.4704348,2.76482609 96.0716087,1.71504348 96.8363478,0.97326087 L96.8703043,0.935478261 L96.9214783,0.950782609 C97.3380435,0.998130435 97.9023913,1.15165217 98.2644348,1.31043478 L98.3093913,1.32813043 L98.327087,1.39078261 C98.4834783,1.90204348 98.5590435,2.45921739 98.5590435,3.03934783 C98.5485217,3.61086957 98.4657826,4.18621739 98.327087,4.7386087 C98.4657826,4.79552174 99.5294348,5.24030435 99.6772174,5.302 C100.266435,4.31247826 101.113913,3.45591304 102.036957,2.93269565 L102.090043,2.90686957 L102.146,2.93173913 C102.510435,3.08669565 103.021696,3.38034783 103.336391,3.6276087 L103.382783,3.65582609 L103.382783,3.79930435 C103.382783,4.84765217 103.058043,5.99213043 102.510435,6.96682609 C102.628565,7.05913043 103.506652,7.74543478 103.638174,7.84730435 C104.465565,7.0423913 105.517261,6.42830435 106.553652,6.17434783 L106.600043,6.14804348 L106.645,6.19634783 C106.957304,6.42830435 107.377696,6.8663913 107.616826,7.17965217 L107.660348,7.22604348 L107.641217,7.2796087 C107.377696,8.31456522 106.754043,9.36673913 105.958696,10.1888696 C106.051,10.316087 106.712435,11.1865217 106.814304,11.3123043 C107.844957,10.7575217 109.009522,10.4399565 110.066,10.459087 L110.114783,10.459087 L110.148739,10.5064348 C110.406043,10.8340435 110.699217,11.3419565 110.842696,11.691087 L110.876652,11.7585217 L110.842696,11.8092174 C110.318043,12.7241304 109.455739,13.5701739 108.466217,14.1746957 C108.526478,14.323913 108.929174,15.3167826 109.005696,15.4564348 C110.114783,15.1771304 111.334826,15.1699565 112.345391,15.4564348 L112.404696,15.4683913 L112.42813,15.5262609 C112.569217,15.8777826 112.733261,16.4478696 112.786826,16.8668261 L112.796391,16.9189565 L112.753348,16.9605652 C112.011565,17.7286522 110.956043,18.3307826 109.845043,18.6445217 C109.867522,18.797087 110.005739,19.8808261 110.031565,20.0348261 C111.200913,20.0596957 112.366435,20.3729565 113.271783,20.9095652 L113.329652,20.9435217 L113.336826,20.9980435 C113.364087,21.1955652 113.376043,21.4361304 113.376043,21.6915217 L113.376043,21.6915217 Z M101.442957,31.7416957 L102.552043,32.9378261 L100.690652,32.3892609 C100.535217,32.5064348 100.431435,32.5475652 100.294174,32.6671304 L101.915,34.846087 C102.052261,34.738 102.195739,34.6069565 102.325826,34.4964783 L101.342522,33.1855652 L103.223043,33.7518261 C103.35313,33.639913 103.536304,33.5131739 103.664,33.3548696 L101.787304,31.370087 C101.687826,31.4791304 101.572087,31.6221304 101.442957,31.7416957 L101.442957,31.7416957 Z M100.155478,34.9283478 C100.155478,34.7676522 100.114348,34.6246522 100.038304,34.4859565 C99.815913,34.0722609 99.287913,33.9393043 98.8775652,34.1746087 C98.5886957,34.3300435 98.440913,34.6246522 98.440913,34.9283478 C98.4490435,35.0670435 98.4834783,35.2234348 98.5652609,35.3535217 C98.5886957,35.3946522 98.6159565,35.4372174 98.6575652,35.4826522 C98.9153478,35.7911304 99.3696957,35.8623913 99.7197826,35.6586522 C99.815913,35.6113043 99.892913,35.5496087 99.9546087,35.4826522 C100.082304,35.3276957 100.155478,35.1191739 100.155478,34.9283478 L100.155478,34.9283478 Z M100.457261,34.2611739 C100.571087,34.461087 100.626565,34.6916087 100.635652,34.9283478 C100.635652,35.1129565 100.596913,35.3028261 100.519913,35.4740435 C100.395565,35.7227391 100.210957,35.9441739 99.9546087,36.092913 C99.328087,36.4587826 98.517913,36.2397391 98.1376957,35.596 C98.1247826,35.5591739 98.107087,35.519 98.0822174,35.4740435 C98.0052174,35.3028261 97.9688696,35.1129565 97.953087,34.9283478 C97.9688696,34.453913 98.2008261,34.0163043 98.6255217,33.77 C99.2606522,33.4093913 100.082304,33.6255652 100.457261,34.2611739 L100.457261,34.2611739 Z M103.259391,30.6971739 L103.575522,31.1964783 L103.865348,31.700087 L104.256087,31.1964783 L104.357478,31.0706957 L103.259391,30.6971739 Z M102.956652,30.0859565 L105.623913,30.9621304 C105.561261,31.0415217 105.511522,31.117087 105.454609,31.1964783 C105.408217,31.2567391 105.352739,31.317 105.315913,31.3949565 L104.849609,31.227087 L104.120739,32.1372174 L104.38713,32.5537826 C104.278565,32.6766957 104.156609,32.8115652 104.017913,32.9478696 L102.961435,31.1964783 L102.570696,30.5513043 L102.956652,30.0859565 Z M105.910391,29.690913 L103.951435,28.612913 L103.700826,29.063913 L106.051,30.3762609 L106.957304,28.7525652 L106.553652,28.535913 L105.910391,29.690913 Z M90.4209565,35.3535217 L90.2258261,36.983913 L89.4424348,35.1961739 C89.2592609,35.1607826 89.1444783,35.1129565 88.9598696,35.0837826 L88.3443478,37.7199565 C88.5351739,37.7711304 88.716913,37.7926522 88.9134783,37.8251739 L89.2425217,36.2062609 L90.0364348,38.0112174 C90.2162609,38.0384783 90.4209565,38.0944348 90.6304348,38.0891739 L90.9255217,35.3654783 C90.770087,35.3568696 90.586913,35.3817391 90.4209565,35.3535217 L90.4209565,35.3535217 Z M90.330087,5.77643478 L90.5653913,7.96113043 L91.1393043,7.9003913 L90.9145217,5.73291304 L91.7835217,5.6783913 L91.7500435,5.192 C90.7806087,5.24747826 90.3822174,5.28621739 89.4223478,5.42969565 L89.4864348,5.89265217 L90.330087,5.77643478 Z M92.9877826,6.96682609 C93.2790435,6.98117391 93.5497391,7.01321739 93.8223478,7.05195652 L93.6788696,6.49334783 L93.4990435,5.91847826 L93.2283478,6.49334783 L92.9877826,6.96682609 Z M92.5439565,7.876 C92.3206087,7.8736087 92.2163478,7.8736087 91.9973043,7.8736087 L93.2661304,5.24030435 L93.8634783,5.302 L94.1781739,6.49334783 L94.612913,8.09456522 C94.4115652,8.05773913 94.2551739,8.02713043 94.0648261,8.0166087 L93.9108261,7.51347826 C93.5157826,7.45321739 93.1585217,7.43456522 92.7916957,7.41782609 L92.5439565,7.876 Z M86.9894348,7.21552174 C87.0248261,7.68995652 87.4461739,8.03669565 87.902913,7.99747826 C88.3548696,7.95156522 88.691087,7.59191304 88.691087,7.13756522 C88.7073478,7.11508696 88.691087,7.08878261 88.691087,7.05913043 C88.6518696,6.58086957 88.2415217,6.24608696 87.7656522,6.29152174 C87.3122609,6.32547826 86.9726957,6.68273913 86.9894348,7.13756522 L86.9894348,7.21552174 Z M86.5006522,7.26286957 L86.5006522,7.13756522 C86.4863043,6.44743478 87.0152609,5.87830435 87.7111304,5.82282609 C88.4462174,5.75156522 89.0995217,6.29152174 89.1607391,7.03091304 L89.1607391,7.13756522 C89.1607391,7.82721739 88.6403913,8.41643478 87.9335217,8.48147826 C87.219,8.5446087 86.5633043,8.00608696 86.5006522,7.26286957 L86.5006522,7.26286957 Z M92.1063478,24.2296522 C93.4990435,24.2296522 94.6444783,23.0856522 94.6444783,21.6915217 C94.6444783,20.5326957 93.8386087,19.5259565 92.73,19.2490435 C92.7156522,19.1356957 92.6850435,18.6067391 92.6850435,18.6067391 L91.4056957,18.6067391 C91.4056957,18.6067391 91.3760435,19.1801739 91.3655217,19.2954348 C90.3028261,19.6182609 89.5868696,20.5862609 89.5868696,21.6915217 C89.5868696,23.0856522 90.7313478,24.2296522 92.1063478,24.2296522 L92.1063478,24.2296522 Z M92.059,25.4913043 C89.9608696,25.4913043 88.2463043,23.7695652 88.2463043,21.6747826 C88.2463043,19.5661304 89.9608696,17.8525217 92.059,17.8525217 C94.171,17.8525217 95.8702609,19.5661304 95.8702609,21.6747826 C95.8702609,23.7791304 94.1628696,25.4913043 92.059,25.4913043 L92.059,25.4913043 Z M84.5469565,33.8006087 C84.9113913,33.9986087 85.2667391,34.2042609 85.6641739,34.3922174 L85.9018696,33.9986087 C85.3513913,33.7140435 84.8343913,33.3893043 84.371913,33.0669565 L82.8534348,35.2966087 C83.4297391,35.6777826 83.9553478,35.9958261 84.5469565,36.3382609 L84.7918261,35.9441739 L83.567,35.2234348 L83.9811739,34.640913 L84.7918261,35.1296957 L85.0285652,34.7499565 C84.7683913,34.6069565 84.4962609,34.441 84.2121739,34.2673913 L84.5469565,33.8006087 Z M81.5104783,30.4943913 L80.2622174,31.5738261 L80.8987826,29.7243913 C80.7849565,29.5656087 80.7342609,29.4556087 80.6161304,29.3102174 L78.3778696,30.8282174 C78.4787826,30.9783913 78.6007391,31.117087 78.706913,31.2720435 L80.0527391,30.3408696 L79.421913,32.2032174 C79.5304783,32.3261304 79.6404783,32.5145652 79.795913,32.6398696 L81.8653478,30.8645652 C81.7505652,30.7421304 81.6123478,30.633087 81.5104783,30.4943913 L81.5104783,30.4943913 Z M80.0312174,28.3455652 L77.7269565,29.690913 C77.8101739,29.8530435 77.8986522,30.0424348 77.9995652,30.1973913 L80.309087,28.8486957 C80.1957391,28.6449565 80.133087,28.535913 80.0312174,28.3455652 L80.0312174,28.3455652 Z M82.8783043,32.5384783 L81.4583478,34.2233913 L81.0159565,33.8398261 L82.4842174,32.2032174 C82.2513043,31.988 82.0738696,31.7938261 81.849087,31.5924783 L82.1752609,31.2648696 C82.7353043,31.7938261 83.2274348,32.2032174 83.8453478,32.7001304 L83.5612609,33.0612174 C83.3364783,32.8861739 83.1045217,32.715913 82.8783043,32.5384783 L82.8783043,32.5384783 Z" id="Fill-3" fill="#EBA22E" mask="url(#mask-2)"></path>
                </g>
                <line x1="124.736652" y1="0.363478261" x2="124.736652" y2="42.9645652" id="Stroke-5" stroke="#8B8E8D"></line>
                <path d="M204.042348,10.8957391 L204.804696,10.8957391 C205.947261,10.8957391 207.255783,10.7302609 207.255783,9.28878261 C207.255783,7.89704348 205.963522,7.78130435 204.804696,7.78130435 L204.042348,7.78130435 L204.042348,10.8957391 Z M201.722783,5.95913043 L204.224565,5.95913043 C206.70913,5.95913043 209.674348,5.8763913 209.674348,9.09030435 C209.674348,10.4485652 208.763739,11.5748696 207.289261,11.7738261 L207.289261,11.8068261 C207.918652,11.8565652 208.283087,12.4859565 208.515043,12.9996087 L210.370217,17.5220435 L207.786174,17.5220435 L206.394913,13.9106957 C206.063,13.0493478 205.765043,12.717913 204.787478,12.717913 L204.042348,12.717913 L204.042348,17.5220435 L201.722783,17.5220435 L201.722783,5.95913043 L201.722783,5.95913043 Z" id="Fill-7" fill="#233E77"></path>
                <path d="M215.754957,15.9983043 C217.460913,15.9983043 217.908565,14.474087 217.908565,13.0493478 C217.908565,11.7408261 217.212696,10.5145652 215.754957,10.5145652 C214.313478,10.5145652 213.618087,11.7738261 213.618087,13.0493478 C213.618087,14.4573478 214.065261,15.9983043 215.754957,15.9983043 Z M215.754957,8.79186957 C218.289739,8.79186957 220.22813,10.4983043 220.22813,13.3143043 C220.22813,15.7663478 218.587696,17.721 215.754957,17.721 C212.938478,17.721 211.299,15.7663478 211.299,13.3143043 C211.299,10.4983043 213.236913,8.79186957 215.754957,8.79186957 L215.754957,8.79186957 Z" id="Fill-8" fill="#233E77"></path>
                <path d="M222.696913,10.6140435 L221.056957,10.6140435 L221.056957,8.99082609 L222.696913,8.99082609 L222.696913,7.2843913 L224.916522,6.57226087 L224.916522,8.99082609 L226.887913,8.99082609 L226.887913,10.6140435 L224.916522,10.6140435 L224.916522,14.5898261 C224.916522,15.3186957 225.115,15.9983043 225.960087,15.9983043 C226.358,15.9983043 226.738696,15.915087 226.970652,15.7663478 L227.03713,17.5220435 C226.573217,17.6545217 226.059565,17.721 225.396696,17.721 C223.657261,17.721 222.696913,16.6439565 222.696913,14.9542609 L222.696913,10.6140435" id="Fill-9" fill="#233E77"></path>
                <path d="M231.394087,16.0973043 C232.073217,16.0973043 232.603609,15.7993478 232.951304,15.3354348 C233.315739,14.8547826 233.415217,14.2421304 233.415217,13.5792609 L232.454391,13.5792609 C231.460565,13.5792609 229.986087,13.7452174 229.986087,15.0537391 C229.986087,15.7826087 230.598739,16.0973043 231.394087,16.0973043 Z M228.793304,9.438 C229.654652,9.04056522 230.813957,8.79186957 231.758522,8.79186957 C234.359304,8.79186957 235.43587,9.86891304 235.43587,12.3864783 L235.43587,13.4797826 C235.43587,14.3416087 235.453087,14.9877391 235.469348,15.6171304 C235.485609,16.2632609 235.518609,16.8596522 235.568826,17.5220435 L233.614174,17.5220435 C233.530957,17.0748696 233.530957,16.5114783 233.514696,16.2465217 L233.481217,16.2465217 C232.967565,17.1906087 231.858,17.721 230.847435,17.721 C229.339957,17.721 227.865478,16.809913 227.865478,15.1862174 C227.865478,13.9106957 228.478609,13.165087 229.323217,12.750913 C230.168304,12.3372174 231.261609,12.254 232.188957,12.254 L233.415217,12.254 C233.415217,10.879 232.802565,10.4155652 231.493565,10.4155652 C230.549478,10.4155652 229.604913,10.7795217 228.859304,11.342913 L228.793304,9.438 L228.793304,9.438 Z" id="Fill-10" fill="#233E77"></path>
                <path d="M237.673174,8.99082609 L239.644565,8.99082609 L239.644565,10.9287391 L239.677565,10.9287391 C239.777043,10.1338696 240.68813,8.79186957 242.013391,8.79186957 C242.228609,8.79186957 242.460565,8.79186957 242.692522,8.85834783 L242.692522,11.0946957 C242.493565,10.9784783 242.09613,10.9124783 241.698696,10.9124783 C239.893261,10.9124783 239.893261,13.165087 239.893261,14.3913478 L239.893261,17.5220435 L237.673174,17.5220435 L237.673174,8.99082609" id="Fill-11" fill="#233E77"></path>
                <path d="M247.61287,15.2196957 L247.646348,15.2196957 L249.700478,8.99082609 L251.952609,8.99082609 L248.755913,17.4555652 C248.043783,19.3442174 247.529652,21.1993913 245.211043,21.1993913 C244.680652,21.1993913 244.150739,21.1166522 243.637087,20.967913 L243.785826,19.3274783 C244.067522,19.4269565 244.382217,19.4766957 244.929348,19.4766957 C245.823696,19.4766957 246.370826,18.8640435 246.370826,17.9524783 L243.106696,8.99082609 L245.558739,8.99082609 L247.61287,15.2196957" id="Fill-12" fill="#233E77"></path>
                <path d="M263.185522,15.8988261 C265.554348,15.8988261 266.432435,13.7944783 266.432435,11.7073478 C266.432435,9.66995652 265.48787,7.58234783 263.185522,7.58234783 C260.882696,7.58234783 259.938609,9.66995652 259.938609,11.7073478 C259.938609,13.7944783 260.816696,15.8988261 263.185522,15.8988261 Z M263.185522,5.76017391 C266.813609,5.76017391 268.851,8.21221739 268.851,11.7073478 C268.851,15.2029565 266.846609,17.721 263.185522,17.721 C259.474696,17.721 257.520043,15.2526957 257.520043,11.7073478 C257.520043,8.16247826 259.507696,5.76017391 263.185522,5.76017391 L263.185522,5.76017391 Z" id="Fill-13" fill="#233E77"></path>
                <path d="M273.010435,13.2315652 C273.010435,14.441087 273.490609,15.9983043 274.965087,15.9983043 C276.422826,15.9983043 276.837,14.4076087 276.837,13.2315652 C276.837,12.0885217 276.439565,10.5145652 274.998087,10.5145652 C273.573826,10.5145652 273.010435,12.0387826 273.010435,13.2315652 Z M270.773609,8.99082609 L272.894217,8.99082609 L272.894217,10.1998696 L272.927217,10.1998696 C273.42413,9.37152174 274.269217,8.79186957 275.577739,8.79186957 C278.195261,8.79186957 279.156087,10.879 279.156087,13.2315652 C279.156087,15.5673913 278.195261,17.721 275.528,17.721 C274.583913,17.721 273.805304,17.4890435 273.026696,16.5449565 L272.993696,16.5449565 L272.993696,21.000913 L270.773609,21.000913 L270.773609,8.99082609 L270.773609,8.99082609 Z" id="Fill-14" fill="#233E77"></path>
                <path d="M286.247261,12.4194783 C286.180783,11.342913 285.68387,10.4155652 284.441348,10.4155652 C283.198826,10.4155652 282.569435,11.276913 282.469957,12.4194783 L286.247261,12.4194783 Z M287.738,17.0418696 C286.925913,17.4890435 285.998565,17.721 284.805783,17.721 C281.989304,17.721 280.349348,16.0973043 280.349348,13.2975652 C280.349348,10.8292609 281.658348,8.79186957 284.30887,8.79186957 C287.472565,8.79186957 288.367391,10.9622174 288.367391,13.9436957 L282.469957,13.9436957 C282.569435,15.3186957 283.530261,16.0973043 284.905261,16.0973043 C285.981826,16.0973043 286.909652,15.6998696 287.738,15.2359565 L287.738,17.0418696 L287.738,17.0418696 Z" id="Fill-15" fill="#233E77"></path>
                <path d="M290.107304,8.99082609 L292.211174,8.99082609 L292.211174,10.1501304 L292.244652,10.1501304 C292.940522,9.17304348 293.88413,8.79186957 295.043913,8.79186957 C297.065043,8.79186957 297.94313,10.2166087 297.94313,12.1382609 L297.94313,17.5220435 L295.723043,17.5220435 L295.723043,12.9666087 C295.723043,11.9230435 295.706783,10.5145652 294.281565,10.5145652 C292.675087,10.5145652 292.326913,12.254 292.326913,13.3477826 L292.326913,17.5220435 L290.107304,17.5220435 L290.107304,8.99082609" id="Fill-16" fill="#233E77"></path>
                <path d="M305.298783,10.7795217 C304.62013,10.5475652 304.122739,10.4155652 303.31113,10.4155652 C302.714739,10.4155652 302.00213,10.6307826 302.00213,11.3596522 C302.00213,12.717913 305.862174,11.8565652 305.862174,14.938 C305.862174,16.9256522 304.089739,17.721 302.283826,17.721 C301.439217,17.721 300.577391,17.5717826 299.765783,17.3565652 L299.898261,15.533913 C300.594609,15.882087 301.323,16.0973043 302.085348,16.0973043 C302.648261,16.0973043 303.543087,15.882087 303.543087,15.0537391 C303.543087,13.3807826 299.683043,14.5238261 299.683043,11.4423913 C299.683043,9.60347826 301.29,8.79186957 303.029435,8.79186957 C304.073,8.79186957 304.75213,8.95734783 305.448,9.10656522 L305.298783,10.7795217" id="Fill-17" fill="#233E77"></path>
                <path d="M207.023826,33.6494783 C209.392652,33.6494783 210.270739,31.5456087 210.270739,29.458 C210.270739,27.4206087 209.32713,25.3334783 207.023826,25.3334783 C204.721478,25.3334783 203.776913,27.4206087 203.776913,29.458 C203.776913,31.5456087 204.655,33.6494783 207.023826,33.6494783 Z M207.023826,23.5113043 C210.651913,23.5113043 212.689783,25.9628696 212.689783,29.458 C212.689783,32.9536087 210.684913,35.4716522 207.023826,35.4716522 C203.313,35.4716522 201.358348,33.0033478 201.358348,29.458 C201.358348,25.9131304 203.346478,23.5113043 207.023826,23.5113043 L207.023826,23.5113043 Z" id="Fill-18" fill="#233E77"></path>
                <path d="M216.848739,30.9826957 C216.848739,32.1917391 217.328913,33.7489565 218.803391,33.7489565 C220.26113,33.7489565 220.675304,32.1582609 220.675304,30.9826957 C220.675304,29.8391739 220.27787,28.2656957 218.836391,28.2656957 C217.41213,28.2656957 216.848739,29.7894348 216.848739,30.9826957 Z M214.611913,26.7414783 L216.732522,26.7414783 L216.732522,27.951 L216.765522,27.951 C217.262435,27.1221739 218.107522,26.5425217 219.416043,26.5425217 C222.033565,26.5425217 222.99487,28.6301304 222.99487,30.9826957 C222.99487,33.3180435 222.033565,35.4716522 219.366783,35.4716522 C218.422217,35.4716522 217.643609,35.2396957 216.865,34.2951304 L216.832,34.2951304 L216.832,38.7515652 L214.611913,38.7515652 L214.611913,26.7414783 L214.611913,26.7414783 Z" id="Fill-19" fill="#233E77"></path>
                <path d="M226.97113,30.9826957 C226.97113,32.1917391 227.451304,33.7489565 228.925783,33.7489565 C230.383522,33.7489565 230.797696,32.1582609 230.797696,30.9826957 C230.797696,29.8391739 230.400261,28.2656957 228.958783,28.2656957 C227.534522,28.2656957 226.97113,29.7894348 226.97113,30.9826957 Z M224.734304,26.7414783 L226.854913,26.7414783 L226.854913,27.951 L226.887913,27.951 C227.384826,27.1221739 228.229913,26.5425217 229.538435,26.5425217 C232.155957,26.5425217 233.117261,28.6301304 233.117261,30.9826957 C233.117261,33.3180435 232.155957,35.4716522 229.489174,35.4716522 C228.544609,35.4716522 227.766,35.2396957 226.987391,34.2951304 L226.954391,34.2951304 L226.954391,38.7515652 L224.734304,38.7515652 L224.734304,26.7414783 L224.734304,26.7414783 Z" id="Fill-20" fill="#233E77"></path>
                <path d="M238.766478,33.7489565 C240.472913,33.7489565 240.920087,32.2247391 240.920087,30.8 C240.920087,29.491 240.224217,28.2656957 238.766478,28.2656957 C237.325478,28.2656957 236.629609,29.5244783 236.629609,30.8 C236.629609,32.208 237.076783,33.7489565 238.766478,33.7489565 Z M238.766478,26.5425217 C241.301261,26.5425217 243.239652,28.2489565 243.239652,31.0649565 C243.239652,33.5165217 241.599217,35.4716522 238.766478,35.4716522 C235.950478,35.4716522 234.310522,33.5165217 234.310522,31.0649565 C234.310522,28.2489565 236.248913,26.5425217 238.766478,26.5425217 L238.766478,26.5425217 Z" id="Fill-21" fill="#233E77"></path>
                <path d="M245.029304,26.7414783 L247.000696,26.7414783 L247.000696,28.6793913 L247.033217,28.6793913 C247.132696,27.8845217 248.044261,26.5425217 249.369522,26.5425217 C249.584739,26.5425217 249.816696,26.5425217 250.048652,26.609 L250.048652,28.8453478 C249.849696,28.7296087 249.452261,28.6631304 249.054826,28.6631304 C247.249391,28.6631304 247.249391,30.9162174 247.249391,32.1415217 L247.249391,35.2726957 L245.029304,35.2726957 L245.029304,26.7414783" id="Fill-22" fill="#233E77"></path>
                <path d="M252.152522,28.3651739 L250.513043,28.3651739 L250.513043,26.7414783 L252.152522,26.7414783 L252.152522,25.0350435 L254.372609,24.322913 L254.372609,26.7414783 L256.344,26.7414783 L256.344,28.3651739 L254.372609,28.3651739 L254.372609,32.3404783 C254.372609,33.0698261 254.571087,33.7489565 255.416174,33.7489565 C255.814087,33.7489565 256.194783,33.6662174 256.426739,33.5165217 L256.493217,35.2726957 C256.029304,35.4056522 255.515652,35.4716522 254.852783,35.4716522 C253.113348,35.4716522 252.152522,34.3946087 252.152522,32.704913 L252.152522,28.3651739" id="Fill-23" fill="#233E77"></path>
                <path d="M265.703565,35.2726957 L263.600174,35.2726957 L263.600174,34.112913 L263.567174,34.112913 C262.887565,34.9417391 261.926739,35.4716522 260.766957,35.4716522 C258.746304,35.4716522 257.868217,34.046913 257.868217,32.1252609 L257.868217,26.7414783 L260.087826,26.7414783 L260.087826,31.2973913 C260.087826,32.3404783 260.104565,33.7489565 261.529304,33.7489565 C263.135783,33.7489565 263.483957,32.0095217 263.483957,30.9162174 L263.483957,26.7414783 L265.703565,26.7414783 L265.703565,35.2726957" id="Fill-24" fill="#233E77"></path>
                <path d="M267.990609,26.7414783 L270.094478,26.7414783 L270.094478,27.9007826 L270.127478,27.9007826 C270.823826,26.9236957 271.767435,26.5425217 272.927217,26.5425217 C274.948348,26.5425217 275.825957,27.9672609 275.825957,29.888913 L275.825957,35.2726957 L273.606348,35.2726957 L273.606348,30.7172609 C273.606348,29.6736957 273.590087,28.2656957 272.16487,28.2656957 C270.558391,28.2656957 270.210217,30.0051304 270.210217,31.0984348 L270.210217,35.2726957 L267.990609,35.2726957 L267.990609,26.7414783" id="Fill-25" fill="#233E77"></path>
                <path d="M278.162739,35.2726957 L280.382826,35.2726957 L280.382826,26.7414783 L278.162739,26.7414783 L278.162739,35.2726957 Z M278.162739,25.1847391 L280.382826,25.1847391 L280.382826,23.0641304 L278.162739,23.0641304 L278.162739,25.1847391 Z" id="Fill-26" fill="#233E77"></path>
                <path d="M283.447522,28.3651739 L281.807565,28.3651739 L281.807565,26.7414783 L283.447522,26.7414783 L283.447522,25.0350435 L285.667609,24.322913 L285.667609,26.7414783 L287.639,26.7414783 L287.639,28.3651739 L285.667609,28.3651739 L285.667609,32.3404783 C285.667609,33.0698261 285.866087,33.7489565 286.710696,33.7489565 C287.108609,33.7489565 287.489304,33.6662174 287.721739,33.5165217 L287.787739,35.2726957 C287.323826,35.4056522 286.810174,35.4716522 286.147783,35.4716522 C284.408348,35.4716522 283.447522,34.3946087 283.447522,32.704913 L283.447522,28.3651739" id="Fill-27" fill="#233E77"></path>
                <path d="M289.212957,35.2726957 L291.432565,35.2726957 L291.432565,26.7414783 L289.212957,26.7414783 L289.212957,35.2726957 Z M289.212957,25.1847391 L291.432565,25.1847391 L291.432565,23.0641304 L289.212957,23.0641304 L289.212957,25.1847391 Z" id="Fill-28" fill="#233E77"></path>
                <path d="M299.119652,30.1706087 C299.053174,29.0935652 298.556261,28.1662174 297.313739,28.1662174 C296.071696,28.1662174 295.441826,29.0275652 295.342348,30.1706087 L299.119652,30.1706087 Z M300.610391,34.7920435 C299.798783,35.2396957 298.870957,35.4716522 297.678174,35.4716522 C294.861696,35.4716522 293.222217,33.8484348 293.222217,31.0482174 C293.222217,28.5803913 294.530739,26.5425217 297.181261,26.5425217 C300.344957,26.5425217 301.239783,28.7123913 301.239783,31.6948261 L295.342348,31.6948261 C295.441826,33.0698261 296.402652,33.8484348 297.777652,33.8484348 C298.854217,33.8484348 299.781565,33.4505217 300.610391,32.9866087 L300.610391,34.7920435 L300.610391,34.7920435 Z" id="Fill-29" fill="#233E77"></path>
                <path d="M308.048783,28.5306522 C307.37013,28.2986957 306.872739,28.1662174 306.06113,28.1662174 C305.464739,28.1662174 304.75213,28.3814348 304.75213,29.1103043 C304.75213,30.4685652 308.612174,29.6076957 308.612174,32.6886522 C308.612174,34.6763043 306.839739,35.4716522 305.033826,35.4716522 C304.189217,35.4716522 303.327391,35.3224348 302.515783,35.1072174 L302.648261,33.2850435 C303.344609,33.6332174 304.073,33.8484348 304.835348,33.8484348 C305.398261,33.8484348 306.293087,33.6332174 306.293087,32.8043913 C306.293087,31.1314348 302.433043,32.2744783 302.433043,29.1930435 C302.433043,27.3546087 304.04,26.5425217 305.779435,26.5425217 C306.823,26.5425217 307.50213,26.7084783 308.198,26.8576957 L308.048783,28.5306522" id="Fill-30" fill="#233E77"></path>
                <polyline id="Fill-31" fill="#C62154" points="136.420565 39.315913 136.420565 5.27234783 143.535652 5.27234783 143.535652 8.22608696 139.204522 8.22608696 139.204522 36.7304348 136.420565 39.315913"></polyline>
                <polyline id="Fill-32" fill="#EBA22E" points="155.642348 39.315913 155.642348 5.27234783 162.757435 5.27234783 162.757435 8.22608696 158.426304 8.22608696 158.426304 36.7304348 155.642348 39.315913"></polyline>
                <g id="Group-38" transform="translate(143.956522, 0.478261)">
                    <polyline id="Fill-33" fill="#1B5494" points="30.9066522 38.8376522 30.9066522 4.79408696 38.0222174 4.79408696 38.0222174 7.74782609 33.691087 7.74782609 33.691087 36.2521739 30.9066522 38.8376522"></polyline>
                    <path d="M1.99626087,23.6748696 C1.54573913,23.6748696 1.18082609,22.8584783 1.18082609,21.8512609 C1.18082609,20.8445217 1.54573913,20.0281304 1.99626087,20.0281304 C2.44678261,20.0281304 2.81169565,20.8445217 2.81169565,21.8512609 C2.81169565,22.8584783 2.44678261,23.6748696 1.99626087,23.6748696 Z M0.125304348,0.18126087 L0.125304348,43.5217391 L11.1391739,38.9189565 L11.1391739,4.78356522 L0.125304348,0.18126087 L0.125304348,0.18126087 Z" id="Fill-35" fill="#C62154"></path>
                    <path d="M21.1238261,23.6748696 C20.6737826,23.6748696 20.3083913,22.8584783 20.3083913,21.8512609 C20.3083913,20.8445217 20.6737826,20.0281304 21.1238261,20.0281304 C21.5743478,20.0281304 21.9392609,20.8445217 21.9392609,21.8512609 C21.9392609,22.8584783 21.5743478,23.6748696 21.1238261,23.6748696 Z M19.3466087,0.18126087 L19.3466087,43.5217391 L30.3604783,38.9189565 L30.3604783,4.78356522 L19.3466087,0.18126087 L19.3466087,0.18126087 Z" id="Fill-36" fill="#EBA22E"></path>
                    <path d="M40.3905652,23.6748696 C39.9400435,23.6748696 39.5751304,22.8584783 39.5751304,21.8512609 C39.5751304,20.8445217 39.9400435,20.0281304 40.3905652,20.0281304 C40.841087,20.0281304 41.206,20.8445217 41.206,21.8512609 C41.206,22.8584783 40.841087,23.6748696 40.3905652,23.6748696 Z M38.5683913,0.18126087 L38.5683913,43.5217391 L49.5822609,38.9189565 L49.5822609,4.78356522 L38.5683913,0.18126087 L38.5683913,0.18126087 Z" id="Fill-37" fill="#1B5494"></path>
                </g>
            </g>
        </g>
    </g>
</svg>