<?xml version="1.0" encoding="utf-8"?>
<!-- Generator: Adobe Illustrator 24.0.1, SVG Export Plug-In . SVG Version: 6.00 Build 0)  -->
<svg version="1.1" id="圖層_1" xmlns="http://www.w3.org/2000/svg" xmlns:xlink="http://www.w3.org/1999/xlink" x="0px" y="0px"
	 viewBox="0 0 113.9 44" style="enable-background:new 0 0 113.9 44;" xml:space="preserve">
<style type="text/css">
	.st0{fill-rule:evenodd;clip-rule:evenodd;fill:#233E77;}
	.st1{fill-rule:evenodd;clip-rule:evenodd;fill:#EBA22E;}
</style>
<title>LOGO</title>
<g id="LOGO" transform="translate(120.000000, 28.000000)">
	<g id="Group-4">
		<g id="Clip-2">
		</g>
		<path id="Fill-1" class="st0" d="M-71.7-10.1c-1.1,0.1-2.2,0.7-2.9,1.2v-0.6c0-0.3-0.2-0.5-0.5-0.5h-1.6c-0.3,0-0.5,0.2-0.5,0.5
			v10c0,0.3,0.2,0.5,0.5,0.5h1.6c0.3,0,0.5-0.2,0.5-0.5v-7c0.4-0.3,1.5-1.2,2.9-1.3c0.2,0,0.4-0.2,0.4-0.5v-1.4
			c0-0.1-0.1-0.2-0.1-0.3C-71.5-10-71.6-10.1-71.7-10.1L-71.7-10.1z M-84.7-3.8c-1,0.1-1.4,0.5-1.4,1.4c0,0.5,0.2,1.4,1.1,1.4
			c1.2,0,2.7-0.5,2.7-0.5v-2.5L-84.7-3.8z M-79.8-6.6v7.2c0,0.1-0.1,0.3-0.2,0.3C-80.1,1-80.2,1-80.4,1c-0.8-0.1-1.3-0.4-1.6-0.7
			c0,0-1.9,0.7-3.5,0.7c-2,0-3.2-1.3-3.2-3.5c0-2.2,1.1-3.2,3.6-3.3l2.7-0.2v-0.6c0-0.8-0.5-1.4-1.4-1.4c-1.2,0-2.9,0.2-3.8,0.2
			c-0.1,0-0.3,0-0.3-0.1C-87.9-8-88-8.1-88-8.2l-0.1-1.4c0-0.2,0.2-0.4,0.4-0.5c0.8-0.1,2.8-0.5,4.1-0.5C-81-10.3-79.8-9.1-79.8-6.6
			L-79.8-6.6z M-114.6-11.7h-0.9c-1,0-1.6,0.1-1.9,0.2v4.3c0.5,0,1.4,0.1,2.7,0.1c1.6,0,2.6-0.9,2.6-2.3
			C-112.1-10.7-112.7-11.7-114.6-11.7L-114.6-11.7z M-109.3,0.4c0.1,0.1,0,0.3,0,0.4c-0.1,0.1-0.2,0.2-0.4,0.2h-1.9
			c-0.2,0-0.3-0.1-0.4-0.3l-2.4-5.6c-1.3,0-2.3-0.1-2.9-0.1v5.5c0,0.3-0.2,0.5-0.5,0.5h-1.7c-0.3,0-0.5-0.2-0.5-0.5v-14
			c0-0.2,0.2-0.4,0.4-0.5c2.3-0.3,4-0.3,4.7-0.3c0.3,0,0.4,0,0.4,0c4.3,0,5.2,2.5,5.2,4.6c0,1.7-0.8,3.1-2.5,3.9L-109.3,0.4z
			 M-60.6-9.8C-60.7-9.9-60.8-10-61-10h-1.6c-0.2,0-0.4,0.1-0.4,0.3l-2.2,8.2h-0.2l-2.2-8.2c-0.1-0.2-0.2-0.3-0.4-0.3h-1.6
			c-0.1,0-0.3,0.1-0.4,0.2C-70-9.8-70-9.6-70-9.5l2.4,9.2c0.1,0.5,0.5,1.3,1.4,1.3h0.5c0,0.2-0.1,0.4-0.1,0.5v0.1
			C-66,2-66.3,2.6-67.4,2.6l-2.1-0.1c-0.1,0-0.3,0-0.3,0.1c-0.1,0.1-0.1,0.2-0.1,0.3l0.1,1.1c0,0.2,0.2,0.4,0.3,0.4
			c0.6,0.2,1.8,0.4,2.7,0.4c0.1,0,0.1,0,0.1,0c1.5,0,2.6-1,3.2-3c0.6-2.4,1.4-5.3,2-7.5c0.3-1,0.5-1.8,0.6-2.4l0.3-1.2
			C-60.5-9.7-60.6-9.8-60.6-9.8L-60.6-9.8z M-100.5-4.6c0-2.4-0.6-3.4-2.4-3.4c-1.7,0-2.4,0.9-2.4,3.4c0,2.3,0.4,3.5,2.4,3.5
			C-100.8-1.1-100.5-2.4-100.5-4.6L-100.5-4.6z M-97.9-4.6c0,4-1.5,5.8-4.9,5.8c-3.4,0-5-1.8-5-5.8c0-3.9,1.5-5.7,5-5.7
			C-99.5-10.3-97.9-8.5-97.9-4.6L-97.9-4.6z M-90.1-0.9l0.1,1.4c0,0.2-0.1,0.4-0.4,0.5c-0.5,0.1-1.4,0.3-1.9,0.3
			c-2.5,0-3.3-1-3.3-4.2v-4.8h-0.9c-0.3,0-0.5-0.2-0.5-0.5v-1.4c0-0.3,0.2-0.5,0.5-0.5h1v-1.7c0-0.2,0.1-0.4,0.3-0.4l1.6-0.4
			c0.1,0,0.3,0,0.4,0.1C-93-12.3-93-12.2-93-12v2.1h2.5c0.3,0,0.5,0.2,0.5,0.5V-8c0,0.3-0.2,0.5-0.5,0.5H-93v4.4
			c0,1.5,0.1,2.1,1.2,2.1c0.4,0,1,0,1.4,0C-90.2-1.2-90.1-1.1-90.1-0.9L-90.1-0.9z"/>
		<path id="Fill-3" class="st1" d="M-43.8-17.8L-43.8-17.8l0.4,0.5l0.5-0.3c0.1,0,0.1-0.1,0.1-0.2c0-0.3-0.2-0.5-0.4-0.4
			C-43.4-18-43.6-18-43.8-17.8L-43.8-17.8z M-44.4-17.7l-0.1-0.3c0.4-0.2,0.7-0.5,1.1-0.6c0.5-0.3,1,0.4,1,0.8c0,0.1,0,0.2-0.1,0.3
			l0.9,0.6c-0.2,0.1-0.3,0.2-0.5,0.3l-0.8-0.5l-0.5,0.3l0.5,0.7c-0.2,0.1-0.3,0.2-0.5,0.3L-44.4-17.7z M-32.7,6.5l0.8,2.3
			c0.2-0.1,0.4-0.1,0.5-0.2l-0.7-2.3C-32.4,6.4-32.5,6.5-32.7,6.5L-32.7,6.5z M-35.8,8.6L-36,8.2l-0.2-0.5l-0.4,1H-35.8z M-35.6,8.2
			l0.5,1.3c-0.2,0-0.4,0-0.5,0L-35.7,9h-1.1l-0.1,0.5c-0.2,0-0.4,0-0.5,0l0.5-1.4l0.4-1l0,0h0.5v0.1L-35.6,8.2z M-32.9-18.6l0.5,0.2
			c0.2,0,0.4-0.2,0.4-0.4c0-0.1,0-0.2-0.2-0.2c-0.2-0.1-0.4-0.1-0.5-0.2l-0.1,0.4L-32.9-18.6z M-33.2-17.4c-0.2-0.1-0.4-0.1-0.5-0.2
			l0.4-1.4l0.3-1c0.5,0.1,0.8,0.3,1.2,0.4c0.2,0.1,0.4,0.4,0.4,0.6c0,0.4-0.2,0.7-0.5,0.8L-32-17c-0.2-0.1-0.3-0.1-0.5-0.2l-0.1-0.9
			l-0.5-0.2L-33.2-17.4z M-40.6,7c0-0.1,0-0.1-0.1-0.2l-0.6-0.2L-41.5,7l-0.1,0.2l0,0l0.5,0.2c0.2,0.1,0.3-0.1,0.4-0.2
			C-40.6,7.1-40.6,7.1-40.6,7L-40.6,7z M-40.2,7L-40.2,7c0,0.5-0.3,0.7-0.6,0.8l0.1,1.1c-0.2,0-0.4-0.1-0.5-0.2V7.6l-0.5-0.2
			l-0.4,0.9c-0.2-0.1-0.3-0.1-0.5-0.2l0.5-1.2l0.1-0.2l0.4-0.9l1.1,0.5C-40.3,6.5-40.2,6.8-40.2,7L-40.2,7z M-33.2,6.6
			c-0.7,0.2-1.3,0.3-2,0.4l0.1,0.4c0.3,0,0.5-0.1,0.8-0.1l0.4,2l0.5-0.1l-0.5-2c0.3-0.1,0.5-0.1,0.8-0.2L-33.2,6.6z M-30.6-16.3
			l0.5-1l1.4-0.6c-0.2-0.1-0.3-0.2-0.5-0.3l-1,0.5l-0.2-1.1c-0.2-0.1-0.4-0.2-0.5-0.2l0.3,1.5l-0.5,1L-30.6-16.3z M-25.3-15.6
			c-0.2-0.3-0.6-0.3-0.7,0l-1.6,1.6c-0.3,0.3-0.2,0.6,0,0.8c2.5,2.7,3.5,6.2,2.7,10.4c0,0.3,0.2,0.5,0.4,0.5l2.3,0.6
			c0.3,0.1,0.5-0.1,0.5-0.4C-20.5-7.1-22.1-12.3-25.3-15.6L-25.3-15.6z M-22.6-0.3l-2.3-0.8c-0.1,0-0.5,0-0.6,0.4
			c-1.8,4.4-6.2,7.4-11.1,7.4S-46,3.6-47.8-0.9c-0.1-0.4-0.5-0.4-0.5-0.3l-2.3,0.8c-0.3,0.1-0.4,0.3-0.3,0.6
			C-48.6,6-43.1,10-36.7,10s12-4.1,14.2-9.8C-22.3-0.1-22.4-0.2-22.6-0.3L-22.6-0.3z M-51-1.6l2.3-0.6c0.2-0.1,0.4-0.3,0.4-0.5
			c-0.8-4.3,0.2-7.7,2.7-10.4c0.3-0.2,0.3-0.5,0-0.8l-1.6-1.6c-0.2-0.2-0.5-0.2-0.7,0.1c-3.2,3.3-4.8,8.4-3.6,13.7
			C-51.4-1.7-51.2-1.5-51-1.6L-51-1.6z M-28.1-12.2c0-0.1-0.1-0.3-0.2-0.4c-1.8-1.9-3.7-3-6.2-3.6c-0.2,0-0.3-0.1-0.5,0
			c-0.1,0.1-0.2,0.3-0.1,0.5l0.5,6c0,0.2,0.1,0.4,0.3,0.5c0.2,0.1,0.4,0.1,0.5,0l5.3-2.6C-28.3-11.8-28.2-11.9-28.1-12.2
			C-28.1-12.1-28.1-12.1-28.1-12.2L-28.1-12.2z M-27-1.5c0.1,0.1,0.3,0.2,0.5,0.1c0.1,0,0.2-0.2,0.3-0.4c0.7-2.5,0.7-4.7,0-7.2
			c-0.1-0.2-0.1-0.4-0.3-0.4c-0.1-0.1-0.3,0-0.5,0.2L-32-5.9c-0.2,0.1-0.3,0.3-0.3,0.5S-32.1-5-32-5L-27-1.5z M-35,5.4
			c0.1,0.1,0.3,0.1,0.5,0c2.5-0.6,4.4-1.7,6.2-3.6c0.1-0.1,0.3-0.3,0.2-0.4c0-0.2-0.2-0.3-0.4-0.4l-5.3-2.6c-0.2-0.1-0.4-0.1-0.5,0
			c-0.2,0.1-0.3,0.3-0.3,0.5l-0.5,5.9C-35.1,5-35.1,5.3-35,5.4L-35,5.4z M-36.6-1.5c2.1,0,3.8-1.7,3.8-3.8s-1.7-3.8-3.8-3.8
			c-2.1,0-3.8,1.7-3.8,3.8C-40.5-3.2-38.7-1.5-36.6-1.5L-36.6-1.5z M-45,1.5c0,0.1,0.1,0.3,0.2,0.4c1.8,1.9,3.7,3,6.2,3.6
			c0.2,0.1,0.4,0.1,0.5,0s0.2-0.3,0.1-0.5l-0.5-6c0-0.2-0.1-0.4-0.3-0.5c-0.2-0.1-0.4-0.1-0.5,0l-5.3,2.6C-44.8,1.1-45,1.3-45,1.5
			L-45,1.5L-45,1.5z M-45.1-12.1c0,0.2,0.2,0.3,0.4,0.4l5.3,2.6c0.2,0.1,0.5,0.1,0.5,0c0.2-0.1,0.3-0.3,0.3-0.5l0.5-5.9
			c0-0.3,0-0.5-0.1-0.5c-0.1-0.1-0.3-0.1-0.5,0c-2.5,0.6-4.4,1.7-6.2,3.6C-45.1-12.4-45.2-12.2-45.1-12.1L-45.1-12.1z M-46.2-9.1
			c-0.2-0.1-0.4-0.3-0.5-0.2c-0.1,0-0.2,0.2-0.3,0.4c-0.7,2.5-0.7,4.7,0,7.2c0.1,0.2,0.1,0.4,0.3,0.4c0.1,0.1,0.3,0,0.5-0.2l4.9-3.3
			C-41.1-5-41-5.1-41-5.3s-0.1-0.4-0.3-0.5L-46.2-9.1z M-46.3-16.5l1.5,1.7c0.2,0.3,0.5,0.2,0.8,0c2-1.5,4.5-2.5,7.3-2.5
			c2.7,0,5.3,0.9,7.3,2.5c0.3,0.3,0.5,0.3,0.8,0l1.6-1.7c0.2-0.2,0.2-0.5-0.2-0.7c-2.6-2.1-6-3.3-9.5-3.3c-3.6,0-6.9,1.3-9.5,3.3
			C-46.4-17-46.4-16.8-46.3-16.5L-46.3-16.5z M-17.3-5.3c0,0.2,0,0.5,0,0.6v0.1h-0.1c-0.8,0.5-1.9,0.7-3,0.7c0,0.1-0.2,1.1-0.2,1.3
			c1,0.3,2,0.8,2.6,1.5l0,0l0,0c-0.1,0.4-0.2,0.9-0.4,1.2v0.1h-0.1c-0.9,0.3-2,0.3-3.1,0c0.1,0.2-0.3,1.1-0.3,1.3
			c0.9,0.5,1.6,1.4,2.1,2.2v0.1v0.1C-19.7,4-20,4.5-20.3,4.7l0,0h-0.1c-0.9,0-2-0.3-2.9-0.8c-0.1,0.1-0.7,0.9-0.8,1
			c0.7,0.7,1.3,1.7,1.5,2.6v0.1l0,0c-0.2,0.3-0.6,0.6-0.9,0.9l0,0h-0.1c-0.9-0.3-1.9-0.8-2.6-1.5c-0.1,0.1-0.9,0.7-1,0.7
			c0.5,0.9,0.8,1.9,0.8,2.9v0.1h-0.1c-0.3,0.3-0.7,0.5-1.1,0.6l0,0h-0.1c-0.8-0.5-1.6-1.3-2.2-2.2c-0.1,0.1-1.1,0.5-1.2,0.5
			c0.1,0.5,0.2,1,0.2,1.5c0,0.5-0.1,1-0.2,1.5v0.1H-31c-0.3,0.1-0.8,0.3-1.2,0.4h-0.1l0,0c-0.7-0.6-1.3-1.6-1.5-2.6
			c-0.1,0-1.1,0.2-1.3,0.2c0,1.1-0.3,2.1-0.8,2.9l0,0H-36c-0.4,0.1-0.9,0.1-1.3,0l0,0l0,0c-0.5-0.8-0.8-1.9-0.8-2.9
			c-0.2,0-1.2-0.2-1.3-0.2c-0.3,1-0.8,1.9-1.5,2.6l0,0H-41c-0.4-0.1-0.9-0.2-1.2-0.4l0,0l0,0c-0.2-0.5-0.2-1-0.2-1.5
			c0-0.5,0.1-1,0.2-1.5c-0.1-0.1-1-0.5-1.2-0.5c-0.5,0.9-1.4,1.7-2.2,2.2l0,0h-0.1c-0.4-0.2-0.8-0.5-1.1-0.6l0,0v-0.1
			c0-0.9,0.3-2,0.8-2.9C-46,7.8-46.8,7.2-47,7.1c-0.7,0.7-1.7,1.3-2.6,1.5h-0.1h-0.1c-0.3-0.3-0.6-0.6-0.9-0.9V7.6V7.5
			c0.3-0.9,0.8-1.9,1.5-2.6c-0.1-0.1-0.7-0.9-0.8-1c-0.9,0.5-2,0.8-2.9,0.8H-53l0,0c-0.2-0.3-0.5-0.7-0.6-1.1V3.6l0,0
			c0.5-0.8,1.3-1.6,2.2-2.2c-0.1-0.2-0.5-1-0.5-1.2c-1,0.3-2.1,0.3-3.1,0l0,0l0,0c-0.1-0.3-0.3-0.8-0.4-1.2v-0.1l0,0
			c0.6-0.7,1.6-1.3,2.6-1.5c0-0.2-0.2-1.2-0.2-1.3c-1.1,0-2.1-0.3-3-0.8l0,0v-0.1c0-0.2,0-0.4,0-0.6c0-0.2,0-0.5,0-0.6v-0.1l0,0
			c1-0.5,2.1-0.7,3.1-0.7c0-0.2,0.2-1.2,0.2-1.3c-1-0.3-2-0.8-2.6-1.5l0,0v-0.1c0-0.4,0.2-0.9,0.4-1.2V-11h0.1c0.9-0.3,2-0.3,3.1,0
			c0.1-0.1,0.5-1,0.5-1.2c-0.9-0.5-1.7-1.4-2.2-2.2v-0.1v-0.1c0.2-0.4,0.5-0.8,0.6-1.1l0,0h0.1c1,0,2,0.3,2.9,0.8
			c0.1-0.1,0.7-0.9,0.8-1.1c-0.7-0.7-1.3-1.7-1.5-2.6l0,0l0,0c0.3-0.3,0.6-0.6,0.9-0.9l0,0l0,0c0.9,0.3,1.9,0.8,2.6,1.5
			c0.1-0.1,0.8-0.6,1-0.7c-0.5-0.9-0.8-1.9-0.8-2.9v-0.2h0.1c0.3-0.2,0.7-0.5,1.1-0.6l0,0h0.1c0.8,0.5,1.6,1.3,2.2,2.2
			c0.1-0.1,1.1-0.5,1.3-0.5c-0.1-0.5-0.2-1-0.2-1.5s0.1-1,0.2-1.5v-0.1h0.1c0.3-0.1,0.8-0.3,1.2-0.4h0.1l0,0
			c0.7,0.6,1.3,1.6,1.5,2.6c0.2,0,1.2-0.2,1.3-0.2c0-1,0.3-2.1,0.8-2.9l0,0h0.1c0.4,0,0.9,0,1.3,0h0.1l0,0c0.5,0.8,0.8,1.9,0.8,2.9
			c0.2,0,1.2,0.2,1.3,0.2c0.3-1,0.8-2,1.5-2.6l0,0h0.1c0.4,0,0.9,0.2,1.2,0.4l0,0v0.1c0.2,0.5,0.2,1,0.2,1.4c0,0.5-0.1,1-0.2,1.5
			c0.1,0.1,1.1,0.5,1.3,0.5c0.5-0.9,1.3-1.6,2.2-2.2h0.1h0.1c0.4,0.2,0.8,0.4,1.1,0.6l0,0v0.1c0,0.9-0.3,2-0.8,2.9
			c0.1,0.1,0.9,0.7,1,0.8c0.7-0.7,1.7-1.3,2.6-1.5l0,0l0,0c0.3,0.2,0.6,0.6,0.9,0.9l0,0v0.1c-0.3,0.9-0.8,1.9-1.5,2.6
			c0.1,0.1,0.7,0.9,0.8,1c0.9-0.5,2-0.8,3-0.8l0,0l0,0c0.3,0.3,0.5,0.7,0.6,1.1v0.1v0.1c-0.5,0.8-1.3,1.6-2.2,2.2
			c0.1,0.1,0.5,1,0.5,1.2c1-0.3,2.1-0.3,3,0h0.1v0.1c0.1,0.4,0.3,0.8,0.4,1.2v0.1l0,0c-0.7,0.8-1.6,1.4-2.7,1.6
			c0,0.2,0.2,1.1,0.2,1.3c1.1,0,2.1,0.3,2.9,0.8h0.1v0.1C-17.3-5.8-17.3-5.6-17.3-5.3L-17.3-5.3z M-28.2,3.7l1,1.1l-1.7-0.5
			c-0.2,0.1-0.3,0.2-0.4,0.3l1.4,2c0.1-0.1,0.3-0.2,0.4-0.3l-0.9-1.2l1.7,0.5c0.1-0.1,0.3-0.2,0.4-0.4L-28,3.6
			C-27.9,3.6-28,3.6-28.2,3.7L-28.2,3.7z M-29.2,6.6c0-0.2,0-0.3-0.1-0.4c-0.2-0.4-0.7-0.5-1.1-0.3c-0.3,0.2-0.4,0.5-0.4,0.7
			c0,0.1,0,0.3,0.1,0.4l0.1,0.1c0.3,0.3,0.6,0.4,1,0.2c0.1,0,0.2-0.1,0.2-0.2C-29.3,7-29.2,6.8-29.2,6.6L-29.2,6.6z M-29,6.1
			c0.1,0.2,0.2,0.4,0.2,0.6c0,0.2,0,0.4-0.1,0.5c-0.1,0.2-0.3,0.5-0.5,0.5C-30,8.1-30.7,7.8-31,7.3c0,0,0-0.1-0.1-0.1
			c-0.1-0.2-0.1-0.4-0.1-0.5c0-0.5,0.2-0.8,0.6-1.1C-30.1,5.3-29.3,5.5-29,6.1L-29,6.1z M-26.4,2.8l0.3,0.5l0.3,0.5l0.4-0.5l0.1-0.1
			L-26.4,2.8z M-26.7,2.3l2.4,0.8c-0.1,0.1-0.1,0.2-0.2,0.2c0,0.1-0.1,0.1-0.1,0.2L-25,3.3l-0.6,0.8l0.3,0.4
			c-0.1,0.1-0.2,0.3-0.4,0.4l-1-1.5l-0.4-0.5L-26.7,2.3z M-24.1,1.9l-1.8-1l-0.3,0.5l2.2,1.2l0.8-1.4l-0.4-0.2L-24.1,1.9z
			 M-38.1,7.1l-0.2,1.4L-39,6.9c-0.2,0-0.3-0.1-0.5-0.1L-40,9.2c0.2,0.1,0.4,0.1,0.5,0.1l0.3-1.4l0.7,1.6c0.2,0,0.4,0.1,0.5,0.1
			l0.3-2.4C-37.7,7.1-37.9,7.1-38.1,7.1L-38.1,7.1z M-38.2-19.7l0.2,2l0.5-0.1l-0.2-2l0.8-0.1v-0.5c-0.9,0.1-1.3,0.1-2.1,0.2
			l0.1,0.5H-38.2z M-35.8-18.6c0.3,0,0.5,0,0.7,0.1l-0.1-0.5l-0.2-0.5l-0.3,0.5L-35.8-18.6z M-36.2-17.8c-0.2,0-0.3,0-0.5,0l1.2-2.4
			l0.5,0.1l0.3,1.1l0.4,1.4c-0.2,0-0.4-0.1-0.5-0.1l-0.2-0.5c-0.4-0.1-0.7-0.1-1-0.1L-36.2-17.8z M-41.2-18.4c0,0.5,0.5,0.7,0.8,0.7
			c0.5,0,0.7-0.4,0.7-0.8c0,0,0,0,0-0.1c0-0.5-0.4-0.7-0.8-0.7C-40.9-19.3-41.2-18.9-41.2-18.4L-41.2-18.4z M-41.6-18.3L-41.6-18.3
			c0-0.7,0.5-1.3,1.1-1.3c0.6-0.1,1.3,0.5,1.3,1.1v0.1c0,0.6-0.5,1.2-1.1,1.2S-41.5-17.7-41.6-18.3L-41.6-18.3z M-36.6-3.1
			c1.3,0,2.3-1,2.3-2.3c0-1.1-0.7-2-1.7-2.2c0-0.1,0-0.5,0-0.5h-1.2c0,0,0,0.5,0,0.6c-1,0.3-1.6,1.2-1.6,2.2
			C-38.8-4-37.8-3.1-36.6-3.1L-36.6-3.1z M-36.6-1.9c-1.9,0-3.4-1.5-3.4-3.4s1.5-3.4,3.4-3.4c1.9,0,3.4,1.5,3.4,3.4
			S-34.7-1.9-36.6-1.9L-36.6-1.9z M-43.4,5.6c0.4,0.2,0.6,0.4,1,0.5l0.2-0.4c-0.5-0.3-1-0.5-1.4-0.8L-45,7c0.5,0.4,1,0.6,1.5,0.9
			l0.2-0.4l-1.1-0.6l0.4-0.5l0.7,0.5l0.2-0.4c-0.3-0.1-0.5-0.3-0.7-0.5L-43.4,5.6z M-46.2,2.6l-1.1,1l0.5-1.6
			c-0.1-0.2-0.2-0.3-0.3-0.4L-49,3c0.1,0.2,0.2,0.3,0.3,0.4l1.2-0.8l-0.5,1.7c0.1,0.1,0.2,0.3,0.4,0.4l1.9-1.6
			C-45.9,2.8-46.1,2.7-46.2,2.6L-46.2,2.6z M-47.5,0.7l-2.1,1.2c0.1,0.2,0.2,0.4,0.3,0.5l2.1-1.2C-47.3,0.9-47.4,0.8-47.5,0.7
			L-47.5,0.7z M-44.9,4.5L-46.2,6l-0.5-0.4l1.4-1.4c-0.2-0.2-0.4-0.4-0.5-0.5l0.3-0.3c0.5,0.5,1,0.8,1.5,1.3L-44.3,5
			C-44.5,4.8-44.7,4.6-44.9,4.5L-44.9,4.5z"/>
	</g>
</g>
</svg>
